<svg xmlns="http://www.w3.org/2000/svg" xmlns:xlink="http://www.w3.org/1999/xlink" width="1500" zoomAndPan="magnify" viewBox="0 0 1125 637.499986" height="850" preserveAspectRatio="xMidYMid meet" version="1.0"><defs><filter x="0%" y="0%" width="100%" height="100%" id="417d7dc963"><feColorMatrix values="0 0 0 0 1 0 0 0 0 1 0 0 0 0 1 0 0 0 1 0" color-interpolation-filters="sRGB"/></filter><clipPath id="320dc0d90a"><path d="M 0.441406 0 L 1124.558594 0 L 1124.558594 637 L 0.441406 637 Z M 0.441406 0 " clip-rule="nonzero"/></clipPath><clipPath id="65f8cc5757"><path d="M 11 0 L 1121 0 L 1121 637 L 11 637 Z M 11 0 " clip-rule="nonzero"/></clipPath><mask id="97c0b2eeef"><g filter="url(#417d7dc963)"><rect x="-112.5" width="1350" fill="#000000" y="-63.749999" height="764.999983" fill-opacity="0.1"/></g></mask><clipPath id="b7f813ed42"><path d="M 1.023438 0.273438 L 24.257812 0.273438 L 24.257812 69.96875 L 1.023438 69.96875 Z M 1.023438 0.273438 " clip-rule="nonzero"/></clipPath><clipPath id="add719203e"><rect x="0" width="25" y="0" height="71"/></clipPath></defs><g clip-path="url(#320dc0d90a)"><path fill="#ffffff" d="M 0.441406 0 L 1124.558594 0 L 1124.558594 637 L 0.441406 637 Z M 0.441406 0 " fill-opacity="1" fill-rule="nonzero"/><path fill="#ffffff" d="M 0.441406 0 L 1124.558594 0 L 1124.558594 637 L 0.441406 637 Z M 0.441406 0 " fill-opacity="1" fill-rule="nonzero"/></g><g clip-path="url(#65f8cc5757)"><path fill="#ededed" d="M 488.945312 500.03125 C 469.15625 510.996094 451.503906 480.773438 471.292969 469.808594 C 494.832031 456.703125 507.132812 428.886719 501.515625 402.675781 C 495.898438 375.664062 473.703125 353.464844 448.292969 344.371094 C 420.476562 334.476562 388.917969 337.6875 362.171875 349.1875 C 336.230469 360.417969 313.230469 377.535156 285.414062 384.222656 C 230.316406 397.0625 180.304688 364.699219 160.78125 313.882812 C 139.652344 259.320312 155.964844 201.550781 147.40625 145.652344 C 139.382812 93.765625 99.53125 50.972656 46.042969 46.160156 C 23.84375 44.019531 23.574219 9.25 46.042969 11.125 C 112.101562 17.007812 167.734375 65.417969 180.304688 131.210938 C 191.535156 190.316406 169.339844 258.785156 199.027344 313.882812 C 213.199219 340.09375 241.550781 356.675781 271.773438 351.59375 C 302.796875 346.511719 328.742188 324.582031 357.894531 313.613281 C 415.128906 292.21875 483.597656 305.324219 519.703125 357.210938 C 551.53125 403.746094 539.496094 471.949219 488.945312 500.03125 Z M 550.726562 583.476562 C 518.902344 608.617188 472.363281 622.523438 432.511719 612.628906 C 379.023438 599.523438 418.070312 545.230469 423.6875 511.261719 C 429.839844 472.75 407.371094 439.585938 372.335938 424.875 C 334.089844 408.5625 292.367188 419.792969 257.597656 439.585938 C 223.632812 458.84375 174.953125 514.207031 132.695312 485.589844 C 113.976562 473.019531 96.589844 503.238281 115.046875 515.808594 C 155.164062 543.089844 201.699219 520.890625 236.46875 496.019531 C 269.902344 471.949219 314.03125 439.050781 357.359375 456.167969 C 372.605469 462.320312 387.3125 474.890625 389.722656 492.007812 C 392.929688 514.207031 377.683594 536.671875 372.335938 557.535156 C 366.988281 578.664062 366.988281 601.929688 380.628906 620.117188 C 392.664062 636.433594 412.1875 644.722656 431.710938 647.933594 C 483.328125 656.222656 534.949219 639.910156 575.601562 608.082031 C 592.984375 594.441406 568.113281 569.835938 550.726562 583.476562 Z M 528.796875 286.601562 C 507.667969 278.578125 498.574219 312.546875 519.4375 320.300781 C 563.566406 336.882812 573.996094 388.503906 573.195312 430.226562 C 572.660156 452.691406 607.695312 452.691406 608.230469 430.226562 C 609.300781 370.851562 588.441406 308.800781 528.796875 286.601562 Z M 610.101562 279.113281 C 591.917969 265.742188 574.265625 296.230469 592.453125 309.335938 C 627.21875 334.742188 647.011719 380.210938 641.128906 423.269531 C 639.789062 432.632812 643.535156 441.992188 653.429688 444.667969 C 661.722656 447.074219 673.757812 441.726562 674.828125 432.363281 C 683.117188 372.722656 659.046875 314.953125 610.101562 279.113281 Z M 376.347656 198.074219 C 359.230469 184.703125 334.089844 182.292969 316.171875 195.398438 C 304.671875 203.691406 297.714844 217.867188 297.984375 231.773438 C 296.378906 240.332031 296.648438 249.160156 300.125 257.984375 C 308.148438 278.578125 329.8125 287.40625 350.671875 288.207031 C 402.292969 289.8125 413.257812 226.425781 376.347656 198.074219 Z M 283.542969 115.699219 C 256.796875 104.734375 232.191406 130.675781 220.15625 151.804688 C 206.246094 176.410156 202.503906 204.492188 207.851562 231.773438 C 212.132812 253.972656 246.097656 244.613281 241.550781 222.414062 C 238.609375 207.167969 240.214844 191.386719 246.097656 177.214844 C 249.84375 168.386719 262.144531 144.582031 274.179688 149.398438 C 295.042969 157.957031 303.867188 123.988281 283.542969 115.699219 Z M 36.679688 133.351562 C 18.226562 120.246094 0.84375 150.734375 19.027344 163.574219 C 36.949219 176.410156 48.984375 196.203125 53.261719 217.597656 C 58.078125 241.402344 50.855469 262.53125 40.691406 283.925781 C 30.261719 306.125 19.5625 328.859375 20.632812 354.269531 C 21.703125 379.140625 31.597656 401.605469 48.179688 419.792969 C 63.425781 436.644531 88.03125 411.769531 73.054688 394.921875 C 31.597656 348.917969 80.007812 302.382812 88.300781 254.507812 C 96.054688 207.433594 75.195312 160.632812 36.679688 133.351562 Z M 457.921875 732.449219 C 418.875 759.195312 368.59375 741.542969 348.53125 700.085938 C 331.414062 665.316406 335.695312 621.453125 303.332031 594.710938 C 265.890625 563.683594 217.480469 584.8125 182.175781 607.546875 C 163.453125 619.582031 143.929688 633.492188 121.195312 634.558594 C 99.265625 635.898438 78.9375 626.804688 63.695312 611.023438 C 48.179688 594.710938 23.308594 619.582031 38.820312 635.898438 C 73.320312 672.003906 124.941406 678.15625 168.804688 656.222656 C 200.09375 640.710938 261.34375 584.277344 289.960938 632.6875 C 300.125 650.074219 302.261719 671.46875 307.878906 690.726562 C 314.296875 712.925781 324.996094 733.519531 341.847656 749.832031 C 377.953125 784.335938 434.117188 791.554688 475.839844 762.9375 C 494.027344 750.101562 476.644531 719.609375 457.921875 732.449219 Z M 389.722656 -20.972656 C 379.558594 19.949219 343.453125 53.648438 300.660156 57.394531 C 258.667969 60.871094 215.339844 34.390625 199.5625 -4.65625 C 191.003906 -25.515625 157.304688 -16.425781 165.863281 4.4375 C 187.523438 57.929688 241.820312 96.441406 300.660156 92.164062 C 358.964844 88.152344 409.511719 44.554688 423.421875 -11.878906 C 428.769531 -33.542969 395.070312 -42.902344 389.722656 -20.972656 Z M 778.597656 174.539062 C 762.015625 131.210938 714.410156 117.035156 675.09375 140.570312 C 655.839844 152.074219 641.664062 169.457031 624.011719 182.828125 C 612.511719 191.386719 588.972656 203.15625 576.671875 188.980469 C 569.449219 180.957031 573.730469 167.585938 575.601562 158.222656 C 578.007812 146.992188 580.414062 135.488281 579.882812 123.722656 C 578.8125 102.859375 570.519531 83.335938 557.414062 67.289062 C 530.667969 34.925781 484.933594 26.367188 447.222656 43.21875 C 403.09375 63.011719 382.5 116.5 399.617188 161.433594 C 407.640625 182.292969 441.339844 173.203125 433.316406 152.074219 C 417.269531 109.28125 449.628906 62.742188 496.703125 70.230469 C 518.902344 73.707031 536.554688 90.824219 542.703125 112.222656 C 549.390625 135.488281 536.820312 157.152344 538.15625 180.421875 C 540.566406 230.4375 598.066406 240.066406 634.175781 218.402344 C 654.769531 206.097656 669.210938 186.574219 689.003906 173.46875 C 707.722656 161.164062 735.539062 159.027344 744.902344 184.167969 C 752.925781 204.761719 786.625 195.667969 778.597656 174.539062 Z M 696.492188 16.472656 C 679.105469 4.972656 653.429688 0.15625 636.046875 12.996094 C 618.128906 21.820312 607.429688 41.882812 610.371094 62.207031 C 613.847656 84.941406 632.835938 103.128906 655.035156 107.140625 C 679.910156 111.953125 705.851562 100.453125 716.015625 76.382812 C 725.375 53.917969 716.550781 29.578125 696.492188 16.472656 Z M 408.175781 880.886719 C 360.300781 913.246094 313.230469 865.640625 297.984375 822.046875 C 290.761719 800.917969 256.796875 810.011719 264.285156 831.40625 C 275.785156 864.304688 295.042969 895.597656 326.066406 912.980469 C 356.824219 930.097656 396.140625 931.433594 425.828125 911.375 C 444.28125 898.539062 426.898438 868.046875 408.175781 880.886719 Z M 431.445312 936.25 C 376.617188 985.191406 300.390625 949.890625 257.332031 903.886719 C 241.820312 887.304688 217.210938 912.179688 232.457031 928.761719 C 289.691406 989.738281 386.511719 1023.171875 456.050781 961.121094 C 473.167969 945.878906 448.292969 921.269531 431.445312 936.25 Z M 1046.855469 759.996094 C 1024.925781 758.925781 990.15625 757.054688 981.0625 732.179688 C 973.304688 710.785156 1000.585938 685.644531 1009.144531 667.992188 C 1031.078125 623.328125 1034.019531 567.695312 997.644531 529.71875 C 982.132812 513.671875 961.003906 502.972656 938.804688 501.636719 C 915 500.296875 893.871094 511.53125 875.953125 526.242188 C 857.230469 541.21875 841.71875 559.40625 820.324219 570.636719 C 800.53125 581.070312 775.925781 586.6875 753.992188 579.464844 C 732.0625 571.976562 717.621094 551.648438 704.246094 533.996094 C 689.269531 514.207031 674.292969 494.679688 652.359375 482.109375 C 632.835938 470.878906 615.183594 501.101562 634.710938 512.332031 C 672.957031 534.265625 687.128906 581.871094 725.109375 604.605469 C 767.367188 630.011719 821.390625 615.839844 858.570312 587.753906 C 877.824219 573.3125 893.335938 552.453125 915.269531 541.753906 C 935.59375 531.589844 957.792969 538.8125 973.039062 554.859375 C 990.957031 573.582031 994.167969 600.324219 988.285156 624.933594 C 981.863281 651.945312 964.214844 670.667969 952.445312 695.003906 C 940.140625 720.144531 943.621094 747.425781 963.144531 767.753906 C 985.074219 790.484375 1017.167969 794.230469 1047.125 795.835938 C 1069.589844 796.371094 1069.324219 761.332031 1046.855469 759.996094 Z M 1045.785156 1047.242188 C 1035.625 1004.183594 1039.902344 950.425781 997.109375 923.410156 C 961.003906 900.410156 914.464844 921.539062 879.699219 898.003906 C 842.519531 872.863281 839.3125 823.382812 851.882812 784.066406 C 864.988281 742.613281 904.570312 701.425781 885.3125 655.421875 C 881.570312 646.59375 873.8125 640.445312 863.917969 643.117188 C 855.625 645.257812 848.136719 655.957031 851.613281 664.515625 C 860.976562 686.445312 849.476562 707.574219 839.3125 727.367188 C 828.078125 748.761719 817.648438 770.425781 813.101562 794.496094 C 805.078125 836.488281 813.101562 880.617188 843.054688 912.445312 C 856.160156 926.351562 873.546875 936.785156 892.535156 941.0625 C 913.398438 945.609375 934.527344 943.203125 955.65625 945.609375 C 1009.414062 952.027344 1002.726562 1016.753906 1012.355469 1056.601562 C 1017.167969 1078.535156 1050.867188 1069.171875 1045.785156 1047.242188 Z M 1118.265625 938.121094 C 1105.695312 897.46875 1073.335938 843.175781 1026.53125 837.289062 C 1002.726562 834.347656 980.261719 843.441406 956.457031 836.222656 C 935.863281 829.800781 920.082031 815.625 911.792969 795.835938 C 908.046875 787.007812 895.210938 785.40625 887.722656 789.683594 C 878.628906 794.765625 877.824219 804.929688 881.570312 813.753906 C 897.882812 852 939.605469 875.269531 980.261719 875 C 993.097656 875 1005.9375 871.257812 1018.773438 871.792969 C 1030.007812 872.328125 1038.566406 878.480469 1046.320312 885.96875 C 1064.242188 902.816406 1076.8125 924.214844 1084.300781 947.480469 C 1091.253906 968.878906 1125.21875 959.515625 1118.265625 938.121094 Z M 1082.960938 455.632812 C 1053.277344 427.550781 1006.472656 405.085938 964.746094 408.027344 C 919.011719 411.234375 884.242188 440.65625 846.265625 462.585938 C 817.378906 479.167969 767.367188 495.75 745.96875 458.574219 C 734.738281 439.050781 704.515625 456.703125 715.746094 476.226562 C 732.863281 506.183594 768.167969 519.019531 801.601562 515.542969 C 844.125 510.996094 877.289062 482.914062 913.128906 462.320312 C 931.046875 451.890625 951.109375 442.527344 972.238281 442.796875 C 993.367188 443.0625 1015.03125 451.890625 1033.214844 462.320312 C 1066.914062 481.578125 1094.464844 517.148438 1083.230469 557.800781 C 1077.078125 579.464844 1111.046875 588.824219 1116.929688 567.160156 C 1128.164062 526.777344 1112.917969 484.25 1082.960938 455.632812 Z M 1095.53125 703.027344 C 1071.460938 685.109375 1073.871094 651.945312 1095 632.957031 C 1111.847656 617.976562 1086.972656 593.105469 1070.125 608.082031 C 1030.542969 643.386719 1036.960938 702.226562 1077.882812 732.984375 C 1095.800781 746.625 1113.453125 716.402344 1095.53125 703.027344 Z M 1091.789062 343.835938 C 1077.613281 314.417969 1045.25 299.171875 1013.425781 298.371094 C 973.839844 297.300781 938.269531 318.964844 904.839844 337.6875 C 873.277344 355.335938 839.3125 370.851562 803.207031 358.546875 C 772.714844 348.117188 749.179688 322.441406 741.957031 291.417969 C 736.875 269.484375 703.175781 278.847656 708.257812 300.777344 C 724.039062 368.175781 795.183594 410.96875 862.046875 394.652344 C 902.699219 384.757812 935.058594 356.675781 973.574219 341.699219 C 1003.527344 330.195312 1045.25 328.058594 1061.566406 361.757812 C 1071.195312 381.816406 1101.417969 364.164062 1091.789062 343.835938 Z M 772.714844 744.75 C 783.949219 725.226562 753.726562 707.574219 742.492188 727.097656 C 725.910156 756.519531 715.746094 788.347656 712.804688 822.046875 C 710.398438 849.59375 711.46875 884.363281 735.003906 903.085938 C 752.390625 916.992188 777.261719 892.386719 759.878906 878.210938 C 743.027344 864.839844 746.238281 835.953125 748.644531 816.964844 C 751.320312 791.289062 759.878906 766.949219 772.714844 744.75 Z M 697.292969 891.582031 C 690.605469 889.175781 690.605469 872.59375 690.339844 867.246094 C 689.539062 853.871094 689.269531 840.5 689.804688 827.128906 C 691.140625 800.382812 696.492188 773.902344 709.0625 750.101562 C 719.492188 730.042969 689.269531 712.390625 678.839844 732.449219 C 661.1875 766.414062 654.5 804.125 654.5 842.371094 C 654.5 873.128906 654.234375 912.980469 688.199219 925.550781 C 709.0625 933.308594 718.15625 899.339844 697.292969 891.582031 Z M 680.175781 652.210938 C 645.941406 659.96875 613.3125 673.875 583.894531 692.867188 C 565.171875 705.167969 582.554688 735.390625 601.542969 723.085938 C 628.824219 705.4375 657.976562 693.132812 689.539062 685.910156 C 711.46875 680.828125 702.109375 647.128906 680.175781 652.210938 Z M 658.78125 591.765625 C 639.523438 589.894531 621.070312 593.90625 603.683594 601.929688 C 595.125 605.941406 592.984375 618.246094 597.53125 626 C 602.613281 634.828125 612.777344 636.164062 621.605469 632.152344 C 633.371094 626.804688 646.210938 625.464844 659.046875 626.804688 C 668.410156 627.605469 676.433594 618.246094 676.433594 609.417969 C 676.433594 598.988281 668.140625 592.570312 658.78125 591.765625 Z M 598.335938 957.644531 C 573.996094 949.621094 541.101562 941.0625 526.925781 917.257812 C 517.832031 902.28125 524.25 884.628906 529.332031 869.386719 C 535.214844 852 541.101562 834.617188 547.25 817.230469 C 554.472656 795.835938 520.773438 786.742188 513.550781 807.871094 C 502.855469 838.894531 484.132812 875.269531 488.144531 908.699219 C 491.621094 938.65625 515.691406 960.050781 541.367188 972.890625 C 580.414062 992.414062 669.210938 1000.707031 669.746094 1059.277344 C 670.011719 1081.742188 704.78125 1081.742188 704.78125 1059.277344 C 703.980469 1000.4375 646.476562 973.425781 598.335938 957.644531 Z M 825.402344 1047.511719 C 818.71875 1034.941406 815.507812 1020.765625 808.019531 1008.460938 C 801.066406 997.226562 792.238281 986.796875 782.078125 978.507812 C 760.949219 960.855469 736.339844 950.957031 709.0625 948.550781 C 686.59375 946.410156 686.863281 981.449219 709.0625 983.589844 C 729.386719 985.460938 748.914062 994.554688 763.355469 1008.730469 C 780.203125 1025.042969 784.214844 1045.371094 794.914062 1065.160156 C 805.878906 1085.222656 836.101562 1067.570312 825.402344 1047.511719 Z M 890.664062 997.761719 C 876.21875 980.914062 856.695312 969.414062 842.519531 952.027344 C 828.347656 934.375 803.742188 959.515625 817.648438 976.902344 C 827.8125 989.472656 840.382812 998.832031 852.148438 1009.265625 C 863.117188 1018.890625 877.824219 1032.800781 875.417969 1049.113281 C 872.207031 1071.046875 905.90625 1080.675781 909.117188 1058.476562 C 912.59375 1035.207031 905.640625 1015.414062 890.664062 997.761719 Z M 1018.773438 107.40625 C 1010.75 124.792969 996.308594 117.035156 988.285156 104.464844 C 979.992188 91.359375 973.839844 76.382812 962.074219 65.683594 C 930.246094 36.265625 885.046875 48.566406 855.089844 73.707031 C 841.71875 84.941406 829.148438 99.117188 831.289062 117.839844 C 833.429688 137.898438 850.277344 151.269531 866.59375 160.632812 C 884.511719 171.0625 906.175781 179.351562 919.011719 196.46875 C 931.046875 212.25 927.839844 231.507812 914.464844 245.414062 C 888.789062 272.160156 814.171875 287.671875 806.683594 236.589844 C 803.472656 214.390625 769.773438 223.75 772.984375 245.949219 C 779.667969 292.753906 830.484375 310.40625 871.675781 303.453125 C 914.464844 296.230469 961.804688 266.007812 961.804688 217.867188 C 961.804688 196.203125 950.304688 176.410156 934.792969 162.503906 C 916.605469 146.1875 893.335938 138.96875 874.347656 124.257812 C 864.71875 116.769531 864.988281 112.757812 873.277344 104.734375 C 881.300781 96.976562 890.929688 89.753906 901.628906 86.011719 C 925.164062 77.988281 939.875 90.023438 950.839844 109.28125 C 960.46875 126.398438 971.167969 145.117188 991.492188 151.003906 C 1013.960938 157.957031 1039.367188 146.457031 1049.265625 125.058594 C 1058.355469 104.734375 1028.132812 86.8125 1018.773438 107.40625 Z M 1100.882812 151.804688 C 1094.464844 130.410156 1060.765625 139.503906 1067.183594 161.164062 C 1072.265625 178.28125 1069.859375 196.46875 1058.089844 210.378906 C 1046.855469 224.019531 1025.996094 231.238281 1011.550781 218.132812 C 994.96875 203.15625 970.097656 227.761719 986.679688 243.007812 C 1013.15625 267.078125 1050.332031 264.136719 1076.542969 241.132812 C 1101.683594 219.203125 1110.242188 183.097656 1100.882812 151.804688 Z M 1055.148438 51.777344 C 1025.726562 69.429688 976.25 68.625 955.386719 38.9375 C 942.28125 20.484375 972.773438 3.101562 985.609375 21.285156 C 993.097656 31.71875 1019.042969 28.777344 1028.9375 25.566406 C 1036.691406 22.890625 1043.378906 18.613281 1048.195312 11.925781 C 1050.066406 8.984375 1051.671875 6.042969 1052.472656 2.566406 C 1053.007812 0.691406 1053.007812 -0.644531 1053.277344 -1.445312 C 1041.507812 -12.679688 1050.867188 -37.554688 1069.324219 -31.132812 C 1109.976562 -17.492188 1079.21875 37.601562 1055.148438 51.777344 Z M 902.964844 0.960938 C 883.175781 -19.902344 852.417969 -15.890625 827.8125 -7.0625 C 801.867188 2.296875 777.796875 17.542969 769.773438 45.359375 C 763.621094 67.023438 797.320312 76.382812 803.472656 54.71875 C 807.753906 39.472656 822.996094 31.71875 837.171875 26.636719 C 848.941406 22.355469 868.195312 15.136719 878.359375 25.566406 C 893.871094 41.882812 918.746094 17.273438 902.964844 0.960938 Z M 215.074219 718.273438 C 195.816406 744.75 166.128906 767.484375 132.429688 770.425781 C 101.136719 773.101562 70.378906 757.855469 56.738281 728.972656 C 47.113281 708.644531 16.890625 726.296875 26.519531 746.625 C 44.972656 785.941406 89.90625 808.40625 132.429688 805.195312 C 179.5 801.71875 218.28125 772.566406 245.296875 735.65625 C 258.667969 717.738281 228.179688 700.355469 215.074219 718.273438 Z M 178.964844 850.664062 C 162.382812 868.316406 129.488281 867.246094 107.289062 863.5 C 81.347656 859.222656 58.078125 848.523438 37.214844 832.476562 C 19.296875 818.835938 1.910156 849.058594 19.5625 862.699219 C 46.308594 883.292969 78.402344 895.328125 111.835938 899.074219 C 143.128906 902.550781 181.105469 899.339844 203.839844 875.269531 C 219.085938 858.953125 194.480469 834.347656 178.964844 850.664062 Z M 196.886719 967.539062 C 177.363281 985.996094 152.757812 998.03125 126.277344 1001.773438 C 108.625 1004.183594 66.367188 1006.054688 58.34375 984.65625 C 50.589844 963.796875 16.621094 972.890625 24.644531 994.019531 C 38.285156 1031.195312 81.878906 1040.289062 117.71875 1037.882812 C 156.769531 1035.207031 193.140625 1019.425781 221.757812 992.683594 C 237.808594 976.632812 213.199219 952.027344 196.886719 967.539062 Z M 460.328125 1009.53125 C 436.523438 1031.460938 404.964844 1041.089844 373.136719 1041.625 C 347.464844 1041.894531 302.796875 1039.484375 288.355469 1014.34375 C 277.121094 994.820312 246.898438 1012.472656 258.132812 1031.996094 C 278.996094 1068.105469 330.613281 1076.394531 368.859375 1076.664062 C 411.652344 1076.929688 453.640625 1063.558594 485.46875 1034.40625 C 501.515625 1019.160156 476.910156 994.285156 460.328125 1009.53125 Z M 460.328125 1009.53125 " fill-opacity="1" fill-rule="nonzero"/></g><g mask="url(#97c0b2eeef)"><g transform="matrix(1, 0, 0, 1, 18, 532)"><g clip-path="url(#add719203e)"><g clip-path="url(#b7f813ed42)"><path fill="#000000" d="M 17.453125 10.875 L 21.542969 3.984375 C 10.601562 10.367188 3.28125 22.664062 3.125 35.15625 C 3.128906 36.867188 3.246094 38.566406 3.484375 40.257812 C 3.722656 41.949219 4.074219 43.617188 4.542969 45.261719 C 5.011719 46.90625 5.59375 48.511719 6.285156 50.078125 C 6.976562 51.640625 7.773438 53.152344 8.675781 54.609375 C 9.578125 56.066406 10.578125 57.453125 11.671875 58.773438 C 12.765625 60.09375 13.949219 61.335938 15.214844 62.492188 C 16.484375 63.652344 17.824219 64.722656 19.242188 65.699219 C 20.65625 66.675781 22.132812 67.550781 23.671875 68.328125 L 22.855469 69.960938 C 9.78125 63.582031 1.113281 49.578125 1.285156 35.132812 C 1.445312 21.953125 9.214844 8.96875 20.785156 2.320312 L 12.617188 1.550781 C 12.445312 1.53125 12.300781 1.460938 12.1875 1.332031 C 12.074219 1.203125 12.023438 1.050781 12.03125 0.878906 C 12.050781 0.644531 12.167969 0.476562 12.382812 0.375 C 12.488281 0.308594 12.605469 0.273438 12.734375 0.273438 L 23.5625 1.277344 C 23.792969 1.300781 23.964844 1.414062 24.070312 1.621094 C 24.1875 1.824219 24.1875 2.027344 24.070312 2.230469 L 18.546875 11.515625 C 18.457031 11.664062 18.324219 11.765625 18.152344 11.808594 C 17.980469 11.855469 17.816406 11.832031 17.660156 11.746094 C 17.503906 11.660156 17.40625 11.527344 17.367188 11.355469 C 17.324219 11.183594 17.351562 11.023438 17.453125 10.875 Z M 17.453125 10.875 " fill-opacity="1" fill-rule="nonzero"/></g></g></g></g></svg>