<svg xmlns="http://www.w3.org/2000/svg" xmlns:xlink="http://www.w3.org/1999/xlink" width="1500" zoomAndPan="magnify" viewBox="0 0 1125 637.499986" height="850" preserveAspectRatio="xMidYMid meet" version="1.0"><defs><filter x="0%" y="0%" width="100%" height="100%" id="5c3ccc6e49"><feColorMatrix values="0 0 0 0 1 0 0 0 0 1 0 0 0 0 1 0 0 0 1 0" color-interpolation-filters="sRGB"/></filter><clipPath id="69bad80663"><path d="M 0.441406 0 L 1124.558594 0 L 1124.558594 637 L 0.441406 637 Z M 0.441406 0 " clip-rule="nonzero"/></clipPath><mask id="a18e3b3db3"><g filter="url(#5c3ccc6e49)"><rect x="-112.5" width="1350" fill="#000000" y="-63.749999" height="764.999983" fill-opacity="0.17"/></g></mask><clipPath id="7e9eaa1d4f"><path d="M 0.441406 0 L 1124.558594 0 L 1124.558594 637 L 0.441406 637 Z M 0.441406 0 " clip-rule="nonzero"/></clipPath><clipPath id="1ec22c9071"><rect x="0" width="1125" y="0" height="637"/></clipPath><mask id="14e94cd965"><g filter="url(#5c3ccc6e49)"><rect x="-112.5" width="1350" fill="#000000" y="-63.749999" height="764.999983" fill-opacity="0.1"/></g></mask><clipPath id="21bdfec92f"><path d="M 1.023438 0.273438 L 24.257812 0.273438 L 24.257812 69.96875 L 1.023438 69.96875 Z M 1.023438 0.273438 " clip-rule="nonzero"/></clipPath><clipPath id="8b6404911d"><rect x="0" width="25" y="0" height="71"/></clipPath></defs><g clip-path="url(#69bad80663)"><path fill="#ffffff" d="M 0.441406 0 L 1124.558594 0 L 1124.558594 637 L 0.441406 637 Z M 0.441406 0 " fill-opacity="1" fill-rule="nonzero"/><path fill="#0ca8f2" d="M 0.441406 0 L 1124.558594 0 L 1124.558594 637 L 0.441406 637 Z M 0.441406 0 " fill-opacity="1" fill-rule="nonzero"/><g mask="url(#a18e3b3db3)"><g transform="matrix(1, 0, 0, 1, 0.000000000000000056, 0)"><g clip-path="url(#1ec22c9071)"><g clip-path="url(#7e9eaa1d4f)"><path fill="#ffffff" d="M 491.175781 469.644531 C 470.691406 480.992188 452.421875 449.714844 472.90625 438.363281 C 497.265625 424.800781 509.996094 396.011719 504.183594 368.886719 C 498.371094 340.925781 475.394531 317.953125 449.097656 308.539062 C 420.3125 298.296875 387.648438 301.621094 359.964844 313.523438 C 333.117188 325.148438 309.308594 342.863281 280.523438 349.785156 C 223.5 363.070312 171.734375 329.578125 151.527344 276.984375 C 129.660156 220.515625 146.546875 160.722656 137.6875 102.871094 C 129.382812 49.167969 88.140625 4.878906 32.777344 -0.101562 C 9.800781 -2.316406 9.523438 -38.300781 32.777344 -36.363281 C 101.148438 -30.273438 158.726562 19.828125 171.734375 87.921875 C 183.363281 149.097656 160.386719 219.960938 191.113281 276.984375 C 205.78125 304.113281 235.125 321.273438 266.40625 316.015625 C 298.515625 310.753906 325.363281 288.058594 355.539062 276.707031 C 414.773438 254.5625 485.636719 268.125 523.007812 321.828125 C 555.949219 369.992188 543.492188 440.578125 491.175781 469.644531 Z M 555.117188 556.007812 C 522.175781 582.027344 474.011719 596.421875 432.765625 586.179688 C 377.40625 572.617188 417.820312 516.425781 423.632812 481.269531 C 430 441.410156 406.746094 407.085938 370.484375 391.859375 C 330.902344 374.976562 287.71875 386.601562 251.734375 407.085938 C 216.578125 427.015625 166.199219 484.316406 122.464844 454.695312 C 103.085938 441.6875 85.09375 472.964844 104.195312 485.976562 C 145.714844 514.210938 193.878906 491.234375 229.867188 465.492188 C 264.464844 440.578125 310.140625 406.53125 354.984375 424.246094 C 370.761719 430.613281 385.984375 443.625 388.476562 461.339844 C 391.800781 484.316406 376.019531 507.566406 370.484375 529.15625 C 364.949219 551.027344 364.949219 575.109375 379.066406 593.933594 C 391.523438 610.816406 411.730469 619.398438 431.9375 622.71875 C 485.359375 631.300781 538.785156 614.414062 580.859375 581.476562 C 598.851562 567.359375 573.109375 541.890625 555.117188 556.007812 Z M 532.417969 248.75 C 510.550781 240.445312 501.140625 275.601562 522.730469 283.628906 C 568.402344 300.789062 579.199219 354.214844 578.367188 397.398438 C 577.816406 420.648438 614.078125 420.648438 614.632812 397.398438 C 615.738281 335.945312 594.148438 271.726562 532.417969 248.75 Z M 616.570312 241 C 597.746094 227.160156 579.476562 258.714844 598.300781 272.277344 C 634.285156 298.574219 654.769531 345.632812 648.679688 390.199219 C 647.292969 399.886719 651.171875 409.578125 661.410156 412.34375 C 669.992188 414.835938 682.449219 409.300781 683.558594 399.609375 C 692.136719 337.882812 667.226562 278.089844 616.570312 241 Z M 374.636719 157.125 C 356.921875 143.285156 330.902344 140.792969 312.355469 154.359375 C 300.453125 162.9375 293.253906 177.609375 293.53125 192.003906 C 291.871094 200.863281 292.148438 209.996094 295.746094 219.132812 C 304.050781 240.445312 326.472656 249.582031 348.0625 250.410156 C 401.488281 252.070312 412.835938 186.46875 374.636719 157.125 Z M 278.582031 71.867188 C 250.902344 60.519531 225.4375 87.371094 212.980469 109.238281 C 198.585938 134.703125 194.710938 163.769531 200.246094 192.003906 C 204.675781 214.980469 239.832031 205.289062 235.125 182.316406 C 232.078125 166.539062 233.742188 150.207031 239.832031 135.535156 C 243.707031 126.398438 256.4375 101.765625 268.894531 106.746094 C 290.488281 115.605469 299.621094 80.449219 278.582031 71.867188 Z M 23.089844 90.136719 C 3.988281 76.574219 -14.003906 108.128906 4.820312 121.417969 C 23.367188 134.703125 35.820312 155.1875 40.25 177.332031 C 45.234375 201.96875 37.757812 223.835938 27.242188 245.980469 C 16.445312 268.957031 5.371094 292.484375 6.480469 318.78125 C 7.585938 344.527344 17.828125 367.777344 34.992188 386.601562 C 50.769531 404.039062 76.234375 378.296875 60.734375 360.859375 C 17.828125 313.246094 67.933594 265.082031 76.511719 215.53125 C 84.539062 166.8125 62.949219 118.371094 23.089844 90.136719 Z M 459.0625 710.191406 C 418.648438 737.871094 366.609375 719.601562 345.847656 676.699219 C 328.132812 640.710938 332.5625 595.316406 299.066406 567.632812 C 260.316406 535.523438 210.210938 557.394531 173.671875 580.921875 C 154.296875 593.378906 134.089844 607.773438 110.558594 608.878906 C 87.863281 610.261719 66.824219 600.851562 51.046875 584.519531 C 34.992188 567.632812 9.246094 593.378906 25.304688 610.261719 C 61.011719 647.632812 114.4375 654 159.832031 631.300781 C 192.21875 615.246094 255.609375 556.839844 285.226562 606.941406 C 295.746094 624.933594 297.960938 647.078125 303.773438 667.007812 C 310.417969 689.984375 321.488281 711.300781 338.929688 728.183594 C 376.296875 763.894531 434.429688 771.367188 477.609375 741.75 C 496.433594 728.460938 478.441406 696.90625 459.0625 710.191406 Z M 388.476562 -69.582031 C 377.957031 -27.230469 340.589844 7.648438 296.300781 11.523438 C 252.839844 15.121094 207.996094 -12.28125 191.664062 -52.695312 C 182.808594 -74.289062 147.929688 -64.875 156.789062 -43.285156 C 179.210938 12.078125 235.402344 51.9375 296.300781 47.507812 C 356.644531 43.355469 408.960938 -1.761719 423.355469 -60.171875 C 428.890625 -82.589844 394.015625 -92.28125 388.476562 -69.582031 Z M 790.960938 132.765625 C 773.796875 87.921875 724.523438 73.253906 683.832031 97.613281 C 663.902344 109.515625 649.230469 127.507812 630.964844 141.347656 C 619.058594 150.207031 594.699219 162.386719 581.96875 147.714844 C 574.492188 139.410156 578.921875 125.570312 580.859375 115.882812 C 583.351562 104.253906 585.84375 92.351562 585.289062 80.171875 C 584.183594 58.582031 575.601562 38.375 562.039062 21.765625 C 534.355469 -11.726562 487.023438 -20.585938 447.992188 -3.148438 C 402.316406 17.335938 381.003906 72.699219 398.71875 119.203125 C 407.023438 140.792969 441.902344 131.382812 433.597656 109.515625 C 416.988281 65.226562 450.484375 17.058594 499.203125 24.8125 C 522.175781 28.410156 540.445312 46.125 546.8125 68.269531 C 553.734375 92.351562 540.722656 114.773438 542.105469 138.855469 C 544.597656 190.621094 604.113281 200.585938 641.480469 178.164062 C 662.796875 165.429688 677.742188 145.222656 698.226562 131.660156 C 717.605469 118.925781 746.394531 116.710938 756.082031 142.730469 C 764.386719 164.046875 799.261719 154.632812 790.960938 132.765625 Z M 705.976562 -30.828125 C 687.984375 -42.730469 661.410156 -47.714844 643.417969 -34.425781 C 624.875 -25.292969 613.800781 -4.53125 616.84375 16.507812 C 620.445312 40.035156 640.097656 58.859375 663.074219 63.011719 C 688.816406 67.992188 715.667969 56.089844 726.1875 31.175781 C 735.875 7.925781 726.738281 -17.265625 705.976562 -30.828125 Z M 407.578125 863.820312 C 358.027344 897.316406 309.308594 848.042969 293.53125 802.921875 C 286.058594 781.054688 250.902344 790.464844 258.652344 812.613281 C 270.554688 846.660156 290.488281 879.046875 322.597656 897.039062 C 354.429688 914.753906 395.121094 916.136719 425.847656 895.378906 C 444.945312 882.089844 426.953125 850.535156 407.578125 863.820312 Z M 431.660156 921.121094 C 374.914062 971.777344 296.023438 935.238281 251.457031 887.628906 C 235.402344 870.464844 209.933594 896.207031 225.714844 913.371094 C 284.949219 976.484375 385.15625 1011.085938 457.125 946.863281 C 474.84375 931.085938 449.097656 905.621094 431.660156 921.121094 Z M 1068.597656 738.703125 C 1045.902344 737.597656 1009.914062 735.660156 1000.503906 709.914062 C 992.476562 687.769531 1020.710938 661.75 1029.570312 643.480469 C 1052.269531 597.253906 1055.3125 539.675781 1017.667969 500.371094 C 1001.613281 483.761719 979.742188 472.6875 956.769531 471.304688 C 932.132812 469.921875 910.265625 481.546875 891.71875 496.773438 C 872.339844 512.273438 856.285156 531.097656 834.140625 542.722656 C 813.65625 553.515625 788.191406 559.332031 765.492188 551.855469 C 742.792969 544.105469 727.847656 523.070312 714.007812 504.800781 C 698.503906 484.316406 683.003906 464.109375 660.304688 451.097656 C 640.097656 439.472656 621.828125 470.75 642.035156 482.378906 C 681.621094 505.074219 696.289062 554.347656 735.597656 577.875 C 779.332031 604.171875 835.25 589.503906 873.726562 560.4375 C 893.65625 545.488281 909.710938 523.898438 932.410156 512.828125 C 953.445312 502.308594 976.421875 509.78125 992.199219 526.390625 C 1010.746094 545.765625 1014.066406 573.449219 1007.976562 598.914062 C 1001.335938 626.871094 983.066406 646.25 970.886719 671.4375 C 958.152344 697.457031 961.75 725.691406 981.957031 746.730469 C 1004.65625 770.257812 1037.875 774.136719 1068.875 775.796875 C 1092.128906 776.347656 1091.851562 740.085938 1068.597656 738.703125 Z M 1067.492188 1035.996094 C 1056.972656 991.429688 1061.402344 935.792969 1017.113281 907.835938 C 979.742188 884.027344 931.578125 905.894531 895.59375 881.539062 C 857.117188 855.515625 853.792969 804.308594 866.804688 763.617188 C 880.367188 720.710938 921.335938 678.082031 901.40625 630.46875 C 897.53125 621.335938 889.503906 614.96875 879.261719 617.738281 C 870.679688 619.953125 862.929688 631.023438 866.527344 639.882812 C 876.214844 662.582031 864.3125 684.449219 853.792969 704.933594 C 842.167969 727.078125 831.375 749.5 826.667969 774.410156 C 818.363281 817.871094 826.667969 863.542969 857.671875 896.484375 C 871.234375 910.878906 889.226562 921.675781 908.878906 926.105469 C 930.472656 930.808594 952.339844 928.316406 974.207031 930.808594 C 1029.847656 937.453125 1022.925781 1004.441406 1032.890625 1045.6875 C 1037.875 1068.382812 1072.75 1058.695312 1067.492188 1035.996094 Z M 1142.507812 923.058594 C 1129.496094 880.984375 1096.003906 824.792969 1047.5625 818.703125 C 1022.925781 815.65625 999.671875 825.066406 975.039062 817.59375 C 953.722656 810.949219 937.390625 796.28125 928.808594 775.796875 C 924.933594 766.660156 911.648438 765 903.898438 769.429688 C 894.484375 774.6875 893.65625 785.207031 897.53125 794.34375 C 914.417969 833.925781 957.597656 858.007812 999.671875 857.730469 C 1012.960938 857.730469 1026.246094 853.855469 1039.535156 854.410156 C 1051.160156 854.964844 1060.019531 861.328125 1068.046875 869.082031 C 1086.59375 886.519531 1099.601562 908.664062 1107.351562 932.746094 C 1114.550781 954.890625 1149.703125 945.203125 1142.507812 923.058594 Z M 1105.96875 423.695312 C 1075.242188 394.628906 1026.800781 371.375 983.617188 374.421875 C 936.285156 377.742188 900.300781 408.191406 860.992188 430.890625 C 831.097656 448.054688 779.332031 465.214844 757.1875 426.738281 C 745.5625 406.53125 714.28125 424.800781 725.910156 445.007812 C 743.625 476.011719 780.164062 489.296875 814.765625 485.699219 C 858.777344 480.992188 893.101562 451.929688 930.195312 430.613281 C 948.742188 419.816406 969.5 410.128906 991.371094 410.40625 C 1013.238281 410.683594 1035.660156 419.816406 1054.480469 430.613281 C 1089.359375 450.542969 1117.871094 487.359375 1106.246094 529.433594 C 1099.878906 551.855469 1135.035156 561.546875 1141.125 539.125 C 1152.75 497.324219 1136.972656 453.3125 1105.96875 423.695312 Z M 1118.980469 679.742188 C 1094.066406 661.195312 1096.558594 626.871094 1118.425781 607.21875 C 1135.863281 591.71875 1110.121094 565.972656 1092.683594 581.476562 C 1051.714844 618.015625 1058.359375 678.914062 1100.710938 710.746094 C 1119.253906 724.863281 1137.523438 693.582031 1118.980469 679.742188 Z M 1115.101562 307.988281 C 1100.433594 277.539062 1066.9375 261.761719 1034 260.929688 C 993.03125 259.820312 956.214844 282.242188 921.613281 301.621094 C 888.949219 319.890625 853.796875 335.945312 816.425781 323.210938 C 784.871094 312.417969 760.511719 285.84375 753.035156 253.730469 C 747.777344 231.035156 712.898438 240.722656 718.15625 263.421875 C 734.488281 333.175781 808.121094 377.464844 877.324219 360.582031 C 919.398438 350.339844 952.894531 321.273438 992.753906 305.773438 C 1023.757812 293.871094 1066.9375 291.65625 1083.824219 326.535156 C 1093.789062 347.292969 1125.070312 329.023438 1115.101562 307.988281 Z M 784.871094 722.925781 C 796.496094 702.71875 765.214844 684.449219 753.589844 704.65625 C 736.425781 735.105469 725.910156 768.046875 722.863281 802.921875 C 720.371094 831.433594 721.480469 867.417969 745.839844 886.796875 C 763.832031 901.191406 789.574219 875.722656 771.582031 861.054688 C 754.144531 847.210938 757.464844 817.316406 759.957031 797.664062 C 762.722656 771.089844 771.582031 745.898438 784.871094 722.925781 Z M 706.808594 874.894531 C 699.886719 872.402344 699.886719 855.238281 699.613281 849.703125 C 698.78125 835.863281 698.503906 822.023438 699.058594 808.183594 C 700.441406 780.5 705.976562 753.097656 718.988281 728.460938 C 729.785156 707.699219 698.503906 689.429688 687.707031 710.191406 C 669.441406 745.347656 662.519531 784.375 662.519531 823.960938 C 662.519531 855.792969 662.242188 897.039062 697.398438 910.046875 C 718.988281 918.074219 728.398438 882.921875 706.808594 874.894531 Z M 689.09375 627.148438 C 653.660156 635.175781 619.890625 649.570312 589.441406 669.222656 C 570.066406 681.957031 588.058594 713.238281 607.710938 700.503906 C 635.945312 682.234375 666.117188 669.5 698.78125 662.027344 C 721.480469 656.765625 711.792969 621.890625 689.09375 627.148438 Z M 666.949219 564.589844 C 647.019531 562.652344 627.917969 566.804688 609.925781 575.109375 C 601.066406 579.261719 598.851562 591.992188 603.558594 600.023438 C 608.816406 609.15625 619.335938 610.539062 628.472656 606.386719 C 640.652344 600.851562 653.9375 599.46875 667.226562 600.851562 C 676.914062 601.683594 685.21875 591.992188 685.21875 582.859375 C 685.21875 572.0625 676.636719 565.421875 666.949219 564.589844 Z M 604.390625 943.265625 C 579.199219 934.960938 545.152344 926.105469 530.480469 901.46875 C 521.070312 885.964844 527.710938 867.695312 532.972656 851.917969 C 539.0625 833.925781 545.152344 815.933594 551.519531 797.941406 C 558.992188 775.796875 524.113281 766.382812 516.640625 788.253906 C 505.566406 820.363281 486.191406 858.007812 490.34375 892.609375 C 493.941406 923.613281 518.855469 945.757812 545.429688 959.042969 C 585.84375 979.25 677.742188 987.832031 678.296875 1048.453125 C 678.574219 1071.707031 714.558594 1071.707031 714.558594 1048.453125 C 713.730469 987.554688 654.214844 959.597656 604.390625 943.265625 Z M 839.402344 1036.273438 C 832.480469 1023.265625 829.160156 1008.59375 821.40625 995.859375 C 814.210938 984.234375 805.078125 973.4375 794.558594 964.855469 C 772.691406 946.585938 747.222656 936.34375 718.988281 933.855469 C 695.738281 931.640625 696.011719 967.902344 718.988281 970.117188 C 740.027344 972.054688 760.234375 981.464844 775.179688 996.136719 C 792.621094 1013.023438 796.773438 1034.058594 807.84375 1054.542969 C 819.195312 1075.304688 850.472656 1057.035156 839.402344 1036.273438 Z M 906.941406 984.789062 C 891.996094 967.347656 871.789062 955.445312 857.117188 937.453125 C 842.445312 919.183594 816.980469 945.203125 831.375 963.195312 C 841.890625 976.207031 854.902344 985.894531 867.082031 996.691406 C 878.429688 1006.65625 893.65625 1021.050781 891.164062 1037.933594 C 887.84375 1060.632812 922.71875 1070.597656 926.042969 1047.625 C 929.640625 1023.539062 922.445312 1003.058594 906.941406 984.789062 Z M 1039.535156 63.289062 C 1031.230469 81.28125 1016.28125 73.253906 1007.976562 60.242188 C 999.398438 46.679688 993.03125 31.175781 980.851562 20.105469 C 947.910156 -10.34375 901.128906 2.390625 870.125 28.410156 C 856.285156 40.035156 843.277344 54.707031 845.492188 74.082031 C 847.707031 94.84375 865.144531 108.683594 882.03125 118.371094 C 900.574219 129.167969 922.996094 137.75 936.285156 155.464844 C 948.742188 171.796875 945.417969 191.726562 931.578125 206.121094 C 905.003906 233.800781 827.773438 249.855469 820.023438 196.984375 C 816.703125 174.011719 781.824219 183.699219 785.144531 206.675781 C 792.066406 255.117188 844.660156 273.386719 887.289062 266.1875 C 931.578125 258.714844 980.574219 227.433594 980.574219 177.609375 C 980.574219 155.1875 968.671875 134.703125 952.617188 120.308594 C 933.792969 103.425781 909.710938 95.949219 890.058594 80.726562 C 880.09375 72.976562 880.367188 68.824219 888.949219 60.519531 C 897.253906 52.492188 907.21875 45.019531 918.292969 41.140625 C 942.652344 32.839844 957.875 45.292969 969.226562 65.226562 C 979.191406 82.941406 990.261719 102.316406 1011.300781 108.40625 C 1034.550781 115.605469 1060.847656 103.703125 1071.089844 81.554688 C 1080.503906 60.519531 1049.222656 41.972656 1039.535156 63.289062 Z M 1124.515625 109.238281 C 1117.871094 87.09375 1082.992188 96.503906 1089.636719 118.925781 C 1094.894531 136.640625 1092.40625 155.464844 1080.226562 169.859375 C 1068.597656 183.976562 1047.007812 191.449219 1032.058594 177.886719 C 1014.898438 162.386719 989.15625 187.851562 1006.316406 203.628906 C 1033.722656 228.542969 1072.199219 225.496094 1099.324219 201.691406 C 1125.34375 178.992188 1134.203125 141.625 1124.515625 109.238281 Z M 1077.179688 5.710938 C 1046.730469 23.980469 995.523438 23.148438 973.929688 -7.578125 C 960.367188 -26.675781 991.921875 -44.667969 1005.210938 -25.84375 C 1012.960938 -15.050781 1039.8125 -18.09375 1050.054688 -21.417969 C 1058.082031 -24.183594 1065 -28.613281 1069.984375 -35.535156 C 1071.921875 -38.578125 1073.582031 -41.625 1074.414062 -45.222656 C 1074.964844 -47.160156 1074.964844 -48.542969 1075.242188 -49.375 C 1063.0625 -61 1072.75 -86.742188 1091.851562 -80.101562 C 1133.925781 -65.984375 1102.09375 -8.960938 1077.179688 5.710938 Z M 919.675781 -46.882812 C 899.191406 -68.472656 867.359375 -64.320312 841.890625 -55.1875 C 815.042969 -45.5 790.128906 -29.722656 781.824219 -0.933594 C 775.457031 21.488281 810.335938 31.175781 816.703125 8.753906 C 821.132812 -7.023438 836.910156 -15.050781 851.582031 -20.308594 C 863.761719 -24.738281 883.691406 -32.210938 894.210938 -21.417969 C 910.265625 -4.53125 936.007812 -29.996094 919.675781 -46.882812 Z M 207.71875 695.519531 C 187.789062 722.925781 157.0625 746.453125 122.1875 749.5 C 89.800781 752.265625 57.964844 736.488281 43.847656 706.59375 C 33.882812 685.554688 2.605469 703.824219 12.570312 724.863281 C 31.667969 765.554688 78.171875 788.804688 122.1875 785.484375 C 170.90625 781.886719 211.042969 751.714844 239 713.511719 C 252.839844 694.96875 221.285156 676.976562 207.71875 695.519531 Z M 170.351562 832.542969 C 153.1875 850.8125 119.140625 849.703125 96.167969 845.828125 C 69.316406 841.398438 45.234375 830.328125 23.640625 813.71875 C 5.097656 799.601562 -12.898438 830.882812 5.371094 845 C 33.054688 866.3125 66.269531 878.769531 100.871094 882.644531 C 133.257812 886.242188 172.566406 882.921875 196.09375 858.007812 C 211.871094 841.121094 186.40625 815.65625 170.351562 832.542969 Z M 188.898438 953.507812 C 168.691406 972.609375 143.222656 985.0625 115.820312 988.9375 C 97.550781 991.429688 53.8125 993.367188 45.511719 971.222656 C 37.484375 949.632812 2.328125 959.042969 10.632812 980.910156 C 24.75 1019.386719 69.871094 1028.800781 106.960938 1026.308594 C 147.375 1023.539062 185.023438 1007.207031 214.640625 979.527344 C 231.25 962.917969 205.78125 937.453125 188.898438 953.507812 Z M 461.554688 996.96875 C 436.917969 1019.664062 404.253906 1029.628906 371.316406 1030.183594 C 344.742188 1030.460938 298.515625 1027.96875 283.566406 1001.949219 C 271.941406 981.742188 240.660156 1000.011719 252.285156 1020.21875 C 273.878906 1057.589844 327.300781 1066.167969 366.886719 1066.445312 C 411.175781 1066.722656 454.636719 1052.882812 487.574219 1022.710938 C 504.183594 1006.933594 478.71875 981.1875 461.554688 996.96875 Z M 461.554688 996.96875 " fill-opacity="1" fill-rule="nonzero"/></g></g></g></g></g><g mask="url(#14e94cd965)"><g transform="matrix(1, 0, 0, 1, 18, 532)"><g clip-path="url(#8b6404911d)"><g clip-path="url(#21bdfec92f)"><path fill="#000000" d="M 17.453125 10.875 L 21.542969 3.984375 C 10.601562 10.367188 3.28125 22.664062 3.125 35.15625 C 3.128906 36.867188 3.246094 38.566406 3.484375 40.257812 C 3.722656 41.949219 4.074219 43.617188 4.542969 45.261719 C 5.011719 46.90625 5.59375 48.511719 6.285156 50.078125 C 6.976562 51.640625 7.773438 53.152344 8.675781 54.609375 C 9.578125 56.066406 10.578125 57.453125 11.671875 58.773438 C 12.765625 60.09375 13.949219 61.335938 15.214844 62.492188 C 16.484375 63.652344 17.824219 64.722656 19.242188 65.699219 C 20.65625 66.675781 22.132812 67.550781 23.671875 68.328125 L 22.855469 69.960938 C 9.78125 63.582031 1.113281 49.578125 1.285156 35.132812 C 1.445312 21.953125 9.214844 8.96875 20.785156 2.320312 L 12.617188 1.550781 C 12.445312 1.53125 12.300781 1.460938 12.1875 1.332031 C 12.074219 1.203125 12.023438 1.050781 12.03125 0.878906 C 12.050781 0.644531 12.167969 0.476562 12.382812 0.375 C 12.488281 0.308594 12.605469 0.273438 12.734375 0.273438 L 23.5625 1.277344 C 23.792969 1.300781 23.964844 1.414062 24.070312 1.621094 C 24.1875 1.824219 24.1875 2.027344 24.070312 2.230469 L 18.546875 11.515625 C 18.457031 11.664062 18.324219 11.765625 18.152344 11.808594 C 17.980469 11.855469 17.816406 11.832031 17.660156 11.746094 C 17.503906 11.660156 17.40625 11.527344 17.367188 11.355469 C 17.324219 11.183594 17.351562 11.023438 17.453125 10.875 Z M 17.453125 10.875 " fill-opacity="1" fill-rule="nonzero"/></g></g></g></g></svg>