<svg xmlns="http://www.w3.org/2000/svg" xmlns:xlink="http://www.w3.org/1999/xlink" width="1500" zoomAndPan="magnify" viewBox="0 0 1125 637.499986" height="850" preserveAspectRatio="xMidYMid meet" version="1.0"><defs><filter x="0%" y="0%" width="100%" height="100%" id="97ff1f158f"><feColorMatrix values="0 0 0 0 1 0 0 0 0 1 0 0 0 0 1 0 0 0 1 0" color-interpolation-filters="sRGB"/></filter><clipPath id="3513f9ec12"><path d="M 0.441406 0 L 1124.558594 0 L 1124.558594 637 L 0.441406 637 Z M 0.441406 0 " clip-rule="nonzero"/></clipPath><clipPath id="17caf2e1ed"><path d="M 0.441406 0 L 1088 0 L 1088 637 L 0.441406 637 Z M 0.441406 0 " clip-rule="nonzero"/></clipPath><mask id="fc8e71ecd7"><g filter="url(#97ff1f158f)"><rect x="-112.5" width="1350" fill="#000000" y="-63.749999" height="764.999983" fill-opacity="0.17"/></g></mask><clipPath id="cc3da81ca3"><path d="M 10 0 L 1080 0 L 1080 637 L 10 637 Z M 10 0 " clip-rule="nonzero"/></clipPath><clipPath id="f8ccf2947a"><rect x="0" width="1088" y="0" height="637"/></clipPath><mask id="ff86d7d903"><g filter="url(#97ff1f158f)"><rect x="-112.5" width="1350" fill="#000000" y="-63.749999" height="764.999983" fill-opacity="0.1"/></g></mask><clipPath id="2f04587785"><path d="M 1.023438 0.273438 L 24.257812 0.273438 L 24.257812 69.96875 L 1.023438 69.96875 Z M 1.023438 0.273438 " clip-rule="nonzero"/></clipPath><clipPath id="b9f0f862ad"><rect x="0" width="25" y="0" height="71"/></clipPath></defs><g clip-path="url(#3513f9ec12)"><path fill="#ffffff" d="M 0.441406 0 L 1124.558594 0 L 1124.558594 637 L 0.441406 637 Z M 0.441406 0 " fill-opacity="1" fill-rule="nonzero"/><path fill="#a9e3ff" d="M 0.441406 0 L 1124.558594 0 L 1124.558594 637 L 0.441406 637 Z M 0.441406 0 " fill-opacity="1" fill-rule="nonzero"/></g><g clip-path="url(#17caf2e1ed)"><g mask="url(#fc8e71ecd7)"><g transform="matrix(1, 0, 0, 1, 0.000000000000000056, 0)"><g clip-path="url(#f8ccf2947a)"><g clip-path="url(#cc3da81ca3)"><path fill="#ffffff" d="M 470.988281 511.960938 C 451.921875 522.523438 434.917969 493.414062 453.984375 482.851562 C 476.652344 470.226562 488.503906 443.433594 483.09375 418.1875 C 477.683594 392.167969 456.300781 370.785156 431.828125 362.027344 C 405.035156 352.492188 374.636719 355.585938 348.875 366.664062 C 323.882812 377.484375 301.730469 393.972656 274.9375 400.410156 C 221.867188 412.777344 173.691406 381.605469 154.886719 332.65625 C 134.53125 280.101562 150.246094 224.457031 142.003906 170.613281 C 134.273438 120.632812 95.890625 79.414062 44.367188 74.777344 C 22.984375 72.71875 22.726562 39.226562 44.367188 41.03125 C 107.996094 46.695312 161.582031 93.328125 173.691406 156.703125 C 184.511719 213.636719 163.128906 279.585938 191.726562 332.65625 C 205.378906 357.902344 232.6875 373.875 261.796875 368.980469 C 291.683594 364.085938 316.671875 342.960938 344.753906 332.398438 C 399.882812 311.789062 465.835938 324.414062 500.613281 374.390625 C 531.269531 419.21875 519.675781 484.910156 470.988281 511.960938 Z M 530.496094 592.339844 C 499.839844 616.554688 455.015625 629.953125 416.628906 620.421875 C 365.105469 607.796875 402.71875 555.5 408.125 522.78125 C 414.050781 485.683594 392.410156 453.738281 358.664062 439.570312 C 321.824219 423.855469 281.632812 434.675781 248.144531 453.738281 C 215.425781 472.289062 168.539062 525.617188 127.835938 498.050781 C 109.800781 485.941406 93.054688 515.054688 110.832031 527.160156 C 149.476562 553.4375 194.300781 532.054688 227.792969 508.097656 C 259.996094 484.910156 302.503906 453.222656 344.238281 469.710938 C 358.921875 475.636719 373.089844 487.746094 375.410156 504.234375 C 378.5 525.617188 363.816406 547.253906 358.664062 567.351562 C 353.511719 587.703125 353.511719 610.117188 366.648438 627.632812 C 378.242188 643.347656 397.050781 651.335938 415.855469 654.425781 C 465.578125 662.414062 515.296875 646.699219 554.457031 616.039062 C 571.203125 602.902344 547.242188 579.199219 530.496094 592.339844 Z M 509.371094 306.378906 C 489.019531 298.652344 480.261719 331.367188 500.355469 338.839844 C 542.863281 354.8125 552.910156 404.535156 552.136719 444.722656 C 551.621094 466.363281 585.371094 466.363281 585.886719 444.722656 C 586.917969 387.53125 566.820312 327.761719 509.371094 306.378906 Z M 587.6875 299.167969 C 570.171875 286.285156 553.167969 315.652344 570.6875 328.277344 C 604.175781 352.75 623.242188 396.546875 617.574219 438.023438 C 616.285156 447.042969 619.890625 456.058594 629.421875 458.632812 C 637.410156 460.953125 649.003906 455.800781 650.035156 446.785156 C 658.019531 389.332031 634.832031 333.6875 587.6875 299.167969 Z M 362.527344 221.105469 C 346.039062 208.226562 321.824219 205.90625 304.5625 218.53125 C 293.484375 226.515625 286.789062 240.171875 287.042969 253.566406 C 285.5 261.8125 285.757812 270.3125 289.105469 278.8125 C 296.835938 298.652344 317.703125 307.152344 337.796875 307.925781 C 387.515625 309.472656 398.078125 248.414062 362.527344 221.105469 Z M 273.132812 141.757812 C 247.371094 131.195312 223.667969 156.1875 212.078125 176.539062 C 198.679688 200.238281 195.074219 227.289062 200.226562 253.566406 C 204.347656 274.949219 237.066406 265.933594 232.6875 244.550781 C 229.851562 229.867188 231.398438 214.667969 237.066406 201.011719 C 240.671875 192.511719 252.523438 169.582031 264.117188 174.21875 C 284.210938 182.464844 292.710938 149.746094 273.132812 141.757812 Z M 35.347656 158.761719 C 17.574219 146.140625 0.828125 175.507812 18.34375 187.875 C 35.605469 200.238281 47.199219 219.304688 51.320312 239.914062 C 55.957031 262.839844 49.003906 283.195312 39.210938 303.804688 C 29.164062 325.1875 18.859375 347.082031 19.890625 371.558594 C 20.921875 395.515625 30.453125 417.15625 46.425781 434.675781 C 61.109375 450.90625 84.8125 426.945312 70.386719 410.714844 C 30.453125 366.40625 77.082031 321.578125 85.070312 275.464844 C 92.539062 230.125 72.445312 185.039062 35.347656 158.761719 Z M 441.101562 735.835938 C 403.488281 761.597656 355.058594 744.59375 335.734375 704.664062 C 319.246094 671.171875 323.371094 628.921875 292.195312 603.160156 C 256.128906 573.277344 209.5 593.628906 175.496094 615.527344 C 157.460938 627.117188 138.65625 640.515625 116.757812 641.546875 C 95.632812 642.832031 76.054688 634.074219 61.367188 618.875 C 46.425781 603.160156 22.46875 627.117188 37.410156 642.832031 C 70.644531 677.613281 120.363281 683.539062 162.613281 662.414062 C 192.753906 647.46875 251.75 593.113281 279.316406 639.742188 C 289.105469 656.488281 291.167969 677.097656 296.578125 695.644531 C 302.757812 717.027344 313.066406 736.867188 329.292969 752.582031 C 364.074219 785.8125 418.175781 792.769531 458.363281 765.203125 C 475.882812 752.839844 459.136719 723.46875 441.101562 735.835938 Z M 375.410156 10.113281 C 365.621094 49.53125 330.839844 81.992188 289.621094 85.597656 C 249.175781 88.945312 207.441406 63.441406 192.238281 25.828125 C 183.996094 5.734375 151.535156 14.496094 159.78125 34.589844 C 180.648438 86.113281 232.945312 123.210938 289.621094 119.089844 C 345.78125 115.222656 394.472656 73.230469 407.871094 18.875 C 413.023438 -1.992188 380.5625 -11.011719 375.410156 10.113281 Z M 749.992188 198.4375 C 734.019531 156.703125 688.160156 143.046875 650.292969 165.71875 C 631.742188 176.796875 618.089844 193.542969 601.085938 206.421875 C 590.007812 214.667969 567.335938 226 555.488281 212.347656 C 548.53125 204.621094 552.652344 191.738281 554.457031 182.722656 C 556.773438 171.902344 559.09375 160.824219 558.578125 149.488281 C 557.546875 129.394531 549.5625 110.585938 536.9375 95.128906 C 511.175781 63.957031 467.121094 55.714844 430.796875 71.945312 C 388.289062 91.007812 368.453125 142.53125 384.941406 185.8125 C 392.667969 205.90625 425.128906 197.148438 417.402344 176.796875 C 401.945312 135.578125 433.117188 90.75 478.457031 97.964844 C 499.839844 101.3125 516.84375 117.800781 522.769531 138.410156 C 529.210938 160.824219 517.101562 181.691406 518.390625 204.105469 C 520.707031 252.277344 576.097656 261.554688 610.875 240.6875 C 630.710938 228.835938 644.625 210.03125 663.6875 197.40625 C 681.722656 185.554688 708.515625 183.496094 717.53125 207.710938 C 725.257812 227.546875 757.71875 218.789062 749.992188 198.4375 Z M 670.902344 46.183594 C 654.15625 35.105469 629.425781 30.46875 612.679688 42.832031 C 595.417969 51.335938 585.113281 70.65625 587.945312 90.234375 C 591.296875 112.132812 609.585938 129.652344 630.96875 133.515625 C 654.929688 138.152344 679.917969 127.074219 689.707031 103.890625 C 698.722656 82.25 690.222656 58.804688 670.902344 46.183594 Z M 393.183594 878.816406 C 347.070312 909.988281 301.730469 864.128906 287.042969 822.136719 C 280.089844 801.785156 247.371094 810.546875 254.585938 831.15625 C 265.664062 862.84375 284.210938 892.984375 314.09375 909.730469 C 343.722656 926.21875 381.59375 927.503906 410.1875 908.183594 C 427.964844 895.816406 411.21875 866.449219 393.183594 878.816406 Z M 415.597656 932.140625 C 362.785156 979.289062 289.363281 945.28125 247.886719 900.96875 C 232.945312 884.996094 209.242188 908.957031 223.925781 924.929688 C 279.058594 983.667969 372.316406 1015.871094 439.300781 956.101562 C 455.785156 941.417969 431.828125 917.714844 415.597656 932.140625 Z M 1008.386719 762.371094 C 987.261719 761.339844 953.769531 759.535156 945.011719 735.578125 C 937.539062 714.96875 963.816406 690.75 972.058594 673.75 C 993.183594 630.726562 996.019531 577.140625 960.984375 540.558594 C 946.039062 525.101562 925.6875 514.796875 904.304688 513.507812 C 881.378906 512.21875 861.027344 523.039062 843.765625 537.207031 C 825.730469 551.636719 810.789062 569.152344 790.179688 579.972656 C 771.117188 590.019531 747.414062 595.429688 726.289062 588.476562 C 705.164062 581.261719 691.253906 561.683594 678.371094 544.679688 C 663.945312 525.617188 649.519531 506.808594 628.394531 494.703125 C 609.585938 483.882812 592.585938 512.992188 611.390625 523.8125 C 648.230469 544.9375 661.882812 590.792969 698.464844 612.691406 C 739.171875 637.164062 791.210938 623.511719 827.019531 596.460938 C 845.570312 582.550781 860.511719 562.457031 881.636719 552.152344 C 901.214844 542.359375 922.597656 549.316406 937.28125 564.773438 C 954.542969 582.808594 957.632812 608.570312 951.964844 632.269531 C 945.785156 658.289062 928.78125 676.324219 917.445312 699.769531 C 905.59375 723.984375 908.945312 750.261719 927.75 769.839844 C 948.875 791.738281 979.789062 795.34375 1008.644531 796.890625 C 1030.28125 797.40625 1030.023438 763.65625 1008.386719 762.371094 Z M 1007.355469 1039.054688 C 997.566406 997.578125 1001.6875 945.796875 960.46875 919.777344 C 925.6875 897.621094 880.863281 917.972656 847.371094 895.300781 C 811.5625 871.085938 808.472656 823.425781 820.578125 785.554688 C 833.203125 745.625 871.332031 705.949219 852.78125 661.640625 C 849.175781 653.136719 841.703125 647.214844 832.171875 649.789062 C 824.1875 651.851562 816.972656 662.15625 820.320312 670.398438 C 829.339844 691.523438 818.261719 711.875 808.472656 730.941406 C 797.652344 751.550781 787.601562 772.417969 783.222656 795.601562 C 775.496094 836.050781 783.222656 878.558594 812.078125 909.214844 C 824.699219 922.609375 841.445312 932.65625 859.738281 936.78125 C 879.832031 941.160156 900.183594 938.839844 920.535156 941.160156 C 972.316406 947.34375 965.878906 1009.6875 975.152344 1048.074219 C 979.789062 1069.195312 1012.25 1060.179688 1007.355469 1039.054688 Z M 1077.171875 933.945312 C 1065.0625 894.789062 1033.890625 842.488281 988.804688 836.824219 C 965.878906 833.988281 944.238281 842.746094 921.308594 835.792969 C 901.472656 829.609375 886.273438 815.957031 878.285156 796.890625 C 874.679688 788.390625 862.3125 786.84375 855.101562 790.964844 C 846.339844 795.859375 845.566406 805.648438 849.175781 814.152344 C 864.890625 850.992188 905.078125 873.40625 944.238281 873.148438 C 956.601562 873.148438 968.96875 869.539062 981.335938 870.054688 C 992.15625 870.570312 1000.398438 876.496094 1007.871094 883.710938 C 1025.128906 899.941406 1037.238281 920.550781 1044.453125 942.960938 C 1051.148438 963.574219 1083.867188 954.554688 1077.171875 933.945312 Z M 1043.164062 469.195312 C 1014.566406 442.144531 969.484375 420.507812 929.296875 423.339844 C 885.242188 426.429688 851.75 454.769531 815.167969 475.894531 C 787.347656 491.867188 739.171875 507.839844 718.5625 472.03125 C 707.742188 453.222656 678.628906 470.226562 689.449219 489.035156 C 705.9375 517.886719 739.945312 530.253906 772.144531 526.902344 C 813.109375 522.523438 845.054688 495.472656 879.574219 475.636719 C 896.835938 465.589844 916.15625 456.574219 936.507812 456.832031 C 956.859375 457.089844 977.726562 465.589844 995.246094 475.636719 C 1027.707031 494.1875 1054.242188 528.449219 1043.421875 567.609375 C 1037.496094 588.476562 1070.214844 597.492188 1075.882812 576.625 C 1086.703125 537.722656 1072.019531 496.761719 1043.164062 469.195312 Z M 1055.273438 707.496094 C 1032.085938 690.234375 1034.40625 658.289062 1054.757812 640 C 1070.988281 625.574219 1047.027344 601.613281 1030.796875 616.039062 C 992.671875 650.046875 998.851562 706.722656 1038.269531 736.351562 C 1055.53125 749.488281 1072.53125 720.378906 1055.273438 707.496094 Z M 1051.664062 361.511719 C 1038.011719 333.171875 1006.839844 318.488281 976.183594 317.714844 C 938.054688 316.683594 903.789062 337.550781 871.589844 355.585938 C 841.1875 372.589844 808.472656 387.53125 773.691406 375.679688 C 744.324219 365.632812 721.652344 340.902344 714.695312 311.015625 C 709.800781 289.890625 677.339844 298.910156 682.234375 320.035156 C 697.4375 384.953125 765.964844 426.171875 830.367188 410.457031 C 869.527344 400.925781 900.699219 373.875 937.796875 359.449219 C 966.652344 348.371094 1006.839844 346.3125 1022.554688 378.769531 C 1031.828125 398.09375 1060.941406 381.089844 1051.664062 361.511719 Z M 744.324219 747.683594 C 755.144531 728.878906 726.03125 711.875 715.210938 730.683594 C 699.238281 759.019531 689.449219 789.679688 686.617188 822.136719 C 684.296875 848.671875 685.328125 882.164062 708 900.199219 C 724.742188 913.59375 748.703125 889.890625 731.957031 876.238281 C 715.726562 863.359375 718.820312 835.535156 721.136719 817.242188 C 723.714844 792.511719 731.957031 769.066406 744.324219 747.683594 Z M 671.671875 889.121094 C 665.234375 886.800781 665.234375 870.828125 664.976562 865.675781 C 664.203125 852.796875 663.945312 839.914062 664.460938 827.03125 C 665.75 801.269531 670.902344 775.765625 683.007812 752.839844 C 693.054688 733.515625 663.945312 716.511719 653.898438 735.835938 C 636.894531 768.554688 630.453125 804.878906 630.453125 841.71875 C 630.453125 871.34375 630.195312 909.730469 662.914062 921.835938 C 683.007812 929.308594 691.769531 896.589844 671.671875 889.121094 Z M 655.1875 658.546875 C 622.210938 666.019531 590.78125 679.414062 562.441406 697.707031 C 544.410156 709.558594 561.152344 738.667969 579.445312 726.816406 C 605.722656 709.816406 633.804688 697.964844 664.203125 691.007812 C 685.328125 686.113281 676.3125 653.652344 655.1875 658.546875 Z M 634.578125 600.324219 C 616.027344 598.523438 598.25 602.386719 581.507812 610.117188 C 573.261719 613.980469 571.203125 625.832031 575.582031 633.300781 C 580.476562 641.804688 590.265625 643.089844 598.765625 639.226562 C 610.101562 634.074219 622.46875 632.785156 634.832031 634.074219 C 643.851562 634.847656 651.578125 625.832031 651.578125 617.328125 C 651.578125 607.28125 643.59375 601.097656 634.578125 600.324219 Z M 576.355469 952.753906 C 552.910156 945.023438 521.222656 936.78125 507.570312 913.851562 C 498.808594 899.425781 504.992188 882.421875 509.886719 867.738281 C 515.554688 850.992188 521.222656 834.246094 527.148438 817.5 C 534.105469 796.890625 501.644531 788.132812 494.6875 808.484375 C 484.382812 838.367188 466.347656 873.40625 470.214844 905.609375 C 473.5625 934.460938 496.75 955.070312 521.480469 967.4375 C 559.09375 986.242188 644.625 994.230469 645.140625 1050.648438 C 645.394531 1072.289062 678.886719 1072.289062 678.886719 1050.648438 C 678.113281 993.972656 622.726562 967.953125 576.355469 952.753906 Z M 795.074219 1039.3125 C 788.632812 1027.203125 785.542969 1013.550781 778.328125 1001.699219 C 771.632812 990.878906 763.128906 980.832031 753.339844 972.847656 C 732.988281 955.84375 709.285156 946.3125 683.007812 943.992188 C 661.367188 941.933594 661.625 975.679688 683.007812 977.742188 C 702.589844 979.542969 721.394531 988.304688 735.304688 1001.957031 C 751.535156 1017.671875 755.402344 1037.253906 765.707031 1056.316406 C 776.269531 1075.636719 805.378906 1058.632812 795.074219 1039.3125 Z M 857.933594 991.394531 C 844.023438 975.164062 825.214844 964.085938 811.5625 947.34375 C 797.910156 930.339844 774.207031 954.554688 787.601562 971.300781 C 797.394531 983.410156 809.5 992.425781 820.835938 1002.472656 C 831.398438 1011.746094 845.566406 1025.144531 843.25 1040.859375 C 840.160156 1061.984375 872.617188 1071.257812 875.710938 1049.875 C 879.058594 1027.460938 872.359375 1008.398438 857.933594 991.394531 Z M 981.335938 133.773438 C 973.605469 150.519531 959.695312 143.046875 951.964844 130.941406 C 943.980469 118.316406 938.054688 103.890625 926.71875 93.585938 C 896.0625 65.246094 852.523438 77.097656 823.671875 101.3125 C 810.789062 112.132812 798.679688 125.785156 800.742188 143.820312 C 802.804688 163.140625 819.035156 176.023438 834.75 185.039062 C 852.007812 195.085938 872.875 203.074219 885.242188 219.5625 C 896.835938 234.761719 893.742188 253.308594 880.863281 266.707031 C 856.132812 292.46875 784.253906 307.410156 777.042969 258.203125 C 773.949219 236.820312 741.488281 245.839844 744.582031 267.222656 C 751.019531 312.304688 799.96875 329.308594 839.644531 322.609375 C 880.863281 315.652344 926.460938 286.542969 926.460938 240.171875 C 926.460938 219.304688 915.382812 200.238281 900.441406 186.84375 C 882.921875 171.128906 860.511719 164.171875 842.21875 150.003906 C 832.945312 142.789062 833.203125 138.925781 841.1875 131.195312 C 848.917969 123.726562 858.191406 116.769531 868.496094 113.164062 C 891.167969 105.433594 905.335938 117.027344 915.898438 135.578125 C 925.171875 152.0625 935.476562 170.097656 955.058594 175.765625 C 976.699219 182.464844 1001.171875 171.386719 1010.703125 150.777344 C 1019.460938 131.195312 990.351562 113.9375 981.335938 133.773438 Z M 1060.425781 176.539062 C 1054.242188 155.929688 1021.78125 164.6875 1027.964844 185.554688 C 1032.859375 202.042969 1030.539062 219.5625 1019.207031 232.957031 C 1008.386719 246.097656 988.289062 253.050781 974.378906 240.429688 C 958.40625 226 934.449219 249.703125 950.421875 264.386719 C 975.925781 287.574219 1011.734375 284.738281 1036.980469 262.585938 C 1061.199219 241.460938 1069.441406 206.679688 1060.425781 176.539062 Z M 1016.371094 80.1875 C 988.03125 97.191406 940.371094 96.417969 920.277344 67.820312 C 907.65625 50.046875 937.023438 33.300781 949.390625 50.820312 C 956.601562 60.867188 981.59375 58.03125 991.125 54.941406 C 998.59375 52.363281 1005.035156 48.242188 1009.671875 41.800781 C 1011.476562 38.96875 1013.023438 36.132812 1013.796875 32.785156 C 1014.308594 30.980469 1014.308594 29.695312 1014.566406 28.921875 C 1003.234375 18.101562 1012.25 -5.859375 1030.023438 0.324219 C 1069.183594 13.464844 1039.558594 66.535156 1016.371094 80.1875 Z M 869.785156 31.238281 C 850.722656 11.144531 821.09375 15.011719 797.394531 23.511719 C 772.402344 32.527344 749.21875 47.210938 741.488281 74.003906 C 735.5625 94.871094 768.023438 103.890625 773.949219 83.023438 C 778.070312 68.335938 792.753906 60.867188 806.410156 55.972656 C 817.746094 51.851562 836.292969 44.894531 846.082031 54.941406 C 861.027344 70.65625 884.984375 46.953125 869.785156 31.238281 Z M 207.183594 722.179688 C 188.632812 747.683594 160.039062 769.582031 127.578125 772.417969 C 97.433594 774.992188 67.808594 760.308594 54.671875 732.484375 C 45.394531 712.90625 16.285156 729.910156 25.558594 749.488281 C 43.335938 787.359375 86.613281 809 127.578125 805.90625 C 172.917969 802.558594 210.273438 774.476562 236.292969 738.925781 C 249.175781 721.664062 219.804688 704.921875 207.183594 722.179688 Z M 172.402344 849.703125 C 156.429688 866.707031 124.742188 865.675781 103.359375 862.070312 C 78.371094 857.949219 55.957031 847.644531 35.863281 832.183594 C 18.601562 819.046875 1.859375 848.15625 18.859375 861.296875 C 44.621094 881.132812 75.539062 892.726562 107.738281 896.332031 C 137.882812 899.683594 174.464844 896.589844 196.363281 873.40625 C 211.046875 857.691406 187.34375 833.988281 172.402344 849.703125 Z M 189.664062 962.285156 C 170.859375 980.058594 147.15625 991.652344 121.652344 995.257812 C 104.648438 997.578125 63.945312 999.382812 56.214844 978.773438 C 48.746094 958.675781 16.027344 967.4375 23.753906 987.789062 C 36.894531 1023.597656 78.886719 1032.355469 113.40625 1030.039062 C 151.019531 1027.460938 186.058594 1012.261719 213.621094 986.5 C 229.078125 971.042969 205.378906 947.34375 189.664062 962.285156 Z M 443.421875 1002.730469 C 420.492188 1023.855469 390.09375 1033.128906 359.4375 1033.644531 C 334.703125 1033.902344 291.683594 1031.585938 277.769531 1007.367188 C 266.949219 988.5625 237.839844 1005.566406 248.660156 1024.371094 C 268.753906 1059.148438 318.472656 1067.136719 355.316406 1067.394531 C 396.535156 1067.652344 436.980469 1054.769531 467.636719 1026.691406 C 483.09375 1012.003906 459.394531 988.046875 443.421875 1002.730469 Z M 443.421875 1002.730469 " fill-opacity="1" fill-rule="nonzero"/></g></g></g></g></g><g mask="url(#ff86d7d903)"><g transform="matrix(1, 0, 0, 1, 18, 532)"><g clip-path="url(#b9f0f862ad)"><g clip-path="url(#2f04587785)"><path fill="#000000" d="M 17.453125 10.875 L 21.542969 3.984375 C 10.601562 10.367188 3.28125 22.664062 3.125 35.15625 C 3.128906 36.867188 3.246094 38.566406 3.484375 40.257812 C 3.722656 41.949219 4.074219 43.617188 4.542969 45.261719 C 5.011719 46.90625 5.59375 48.511719 6.285156 50.078125 C 6.976562 51.640625 7.773438 53.152344 8.675781 54.609375 C 9.578125 56.066406 10.578125 57.453125 11.671875 58.773438 C 12.765625 60.09375 13.949219 61.335938 15.214844 62.492188 C 16.484375 63.652344 17.824219 64.722656 19.242188 65.699219 C 20.65625 66.675781 22.132812 67.550781 23.671875 68.328125 L 22.855469 69.960938 C 9.78125 63.582031 1.113281 49.578125 1.285156 35.132812 C 1.445312 21.953125 9.214844 8.96875 20.785156 2.320312 L 12.617188 1.550781 C 12.445312 1.53125 12.300781 1.460938 12.1875 1.332031 C 12.074219 1.203125 12.023438 1.050781 12.03125 0.878906 C 12.050781 0.644531 12.167969 0.476562 12.382812 0.375 C 12.488281 0.308594 12.605469 0.273438 12.734375 0.273438 L 23.5625 1.277344 C 23.792969 1.300781 23.964844 1.414062 24.070312 1.621094 C 24.1875 1.824219 24.1875 2.027344 24.070312 2.230469 L 18.546875 11.515625 C 18.457031 11.664062 18.324219 11.765625 18.152344 11.808594 C 17.980469 11.855469 17.816406 11.832031 17.660156 11.746094 C 17.503906 11.660156 17.40625 11.527344 17.367188 11.355469 C 17.324219 11.183594 17.351562 11.023438 17.453125 10.875 Z M 17.453125 10.875 " fill-opacity="1" fill-rule="nonzero"/></g></g></g></g></svg>