<svg xmlns="http://www.w3.org/2000/svg" xmlns:xlink="http://www.w3.org/1999/xlink" viewBox="0,0,256,256" width="50px" height="50px" fill-rule="nonzero"><g fill="#0ca8f2" fill-rule="nonzero" stroke="none" stroke-width="1" stroke-linecap="butt" stroke-linejoin="miter" stroke-miterlimit="10" stroke-dasharray="" stroke-dashoffset="0" font-family="none" font-weight="none" font-size="none" text-anchor="none" style="mix-blend-mode: normal"><g transform="scale(5.12,5.12)"><path d="M9.2832,4c-1.79427,0 -3.37799,1.2052 -3.85547,2.93555l-3.42773,12.42969v0.13477c0,3.57827 2.92173,6.5 6.5,6.5c2.31303,0 4.34551,-1.22484 5.49805,-3.05469c1.14889,1.8327 3.18279,3.05469 5.50195,3.05469c2.31917,0 4.35306,-1.22199 5.50195,-3.05469c1.15254,1.82985 3.18501,3.05469 5.49805,3.05469c2.31399,0 4.34772,-1.22553 5.5,-3.05664c1.15228,1.83111 3.18601,3.05664 5.5,3.05664c3.57827,0 6.5,-2.92173 6.5,-6.5v-0.13477l-3.42969,-12.42969c-0.47735,-1.72989 -2.06053,-2.93555 -3.85547,-2.93555zM9.2832,6h5.56836l-1.6543,12h-8.74609l2.9043,-10.53125c0.24052,-0.87165 1.024,-1.46875 1.92773,-1.46875zM26,6h7.12891l1.6543,12h-8.7832zM15,18h9v1.5c0,0.16889 0.01261,0.33427 0.02539,0.5h-9.02539v-0.5zM36.80273,18h8.74609l0.43555,1.58008c-0.00263,0.14393 -0.03328,0.27969 -0.04883,0.41992h-8.88477c-0.0184,-0.16637 -0.05078,-0.32847 -0.05078,-0.5v-0.06836zM4.06445,20h8.88477c-0.2495,2.25621 -2.12302,4 -4.44922,4c-2.32472,0 -4.18564,-1.74538 -4.43555,-4zM26.09961,20h8.80078c-0.2574,2.24762 -2.08025,4 -4.40039,4c-2.32014,0 -4.14299,-1.75238 -4.40039,-4zM14,25.97461c-1.483,1.261 -3.401,2.02539 -5.5,2.02539c-1.655,0 -3.194,-0.48083 -4.5,-1.29883v16.29883c0,1.654 1.346,3 3,3h36c1.654,0 3,-1.346 3,-3v-16.29883c-1.306,0.818 -2.845,1.29883 -4.5,1.29883c-2.099,0 -4.017,-0.76439 -5.5,-2.02539c-1.483,1.261 -3.401,2.02539 -5.5,2.02539c-2.099,0 -4.017,-0.76439 -5.5,-2.02539c-1.483,1.261 -3.401,2.02539 -5.5,2.02539c-2.099,0 -4.017,-0.76439 -5.5,-2.02539zM35.5,29c2.046,0 3.87245,0.95255 5.06445,2.43555l-1.43164,1.43164c-0.818,-1.127 -2.13681,-1.86719 -3.63281,-1.86719c-2.481,0 -4.5,2.019 -4.5,4.5c0,2.481 2.019,4.5 4.5,4.5c1.953,0 3.60261,-1.258 4.22461,-3h-3.72461v-2h5.97461c0.012,0.166 0.02539,0.331 0.02539,0.5c0,3.584 -2.916,6.5 -6.5,6.5c-3.584,0 -6.5,-2.916 -6.5,-6.5c0,-3.584 2.916,-6.5 6.5,-6.5z"></path></g></g></svg>