<?xml version="1.0" encoding="UTF-8"?>
<!DOCTYPE svg PUBLIC "-//W3C//DTD SVG 1.1//EN" "http://www.w3.org/Graphics/SVG/1.1/DTD/svg11.dtd">
<svg xmlns="http://www.w3.org/2000/svg" version="1.1" width="7000px" height="7000px" style="shape-rendering:geometricPrecision; text-rendering:geometricPrecision; image-rendering:optimizeQuality; fill-rule:evenodd; clip-rule:evenodd" xmlns:xlink="http://www.w3.org/1999/xlink">
<g><path style="opacity:0.994" fill="#09a9f0" d="M 3566.5,2955.5 C 3585.78,2967.07 3606.78,2972.91 3629.5,2973C 3642.85,2973.32 3656.19,2973.99 3669.5,2975C 3684.94,2976.03 3698.44,2981.53 3710,2991.5C 3719.81,3003.8 3725.81,3017.8 3728,3033.5C 3729.71,3043.09 3730.71,3052.76 3731,3062.5C 3731.33,3181.5 3731.67,3300.5 3732,3419.5C 3806.8,3348.36 3881.3,3276.86 3955.5,3205C 3998.5,3204.33 4041.5,3204.33 4084.5,3205C 4109.71,3227.41 4112.21,3252.24 4092,3279.5C 4069.2,3304.64 4045.36,3328.8 4020.5,3352C 3975.62,3393.05 3930.62,3433.88 3885.5,3474.5C 3975.5,3583.83 4065.5,3693.17 4155.5,3802.5C 4148.41,3806.37 4140.74,3808.87 4132.5,3810C 4041.32,3826.05 3961.99,3802.71 3894.5,3740C 3870.77,3717.62 3849.27,3693.45 3830,3667.5C 3797.33,3622.17 3764.67,3576.83 3732,3531.5C 3731.67,3593.83 3731.33,3656.17 3731,3718.5C 3728.45,3760.37 3706.95,3786.54 3666.5,3797C 3653.07,3800.74 3639.41,3803.07 3625.5,3804C 3606.12,3804.82 3586.79,3804.65 3567.5,3803.5C 3566.5,3520.83 3566.17,3238.17 3566.5,2955.5 Z"/></g>
<g><path style="opacity:0.958" fill="#09a9f0" d="M 5430.5,2955.5 C 5466.99,2952.84 5495.82,2966.17 5517,2995.5C 5535.33,3028.23 5534.66,3060.56 5515,3092.5C 5491.5,3122.79 5460.66,3134.62 5422.5,3128C 5378.47,3116.46 5354.8,3087.96 5351.5,3042.5C 5355.89,2993.45 5382.23,2964.45 5430.5,2955.5 Z M 5436.5,2974.5 C 5473.88,2975.39 5496.72,2994.05 5505,3030.5C 5509.26,3064.82 5496.1,3089.65 5465.5,3105C 5432.51,3115.3 5406.01,3106.47 5386,3078.5C 5375.34,3058.59 5373.67,3037.92 5381,3016.5C 5391.64,2992.02 5410.14,2978.02 5436.5,2974.5 Z M 5429.5,3014.5 C 5436.26,3014.12 5442.92,3014.62 5449.5,3016C 5458.43,3021.92 5458.77,3028.26 5450.5,3035C 5443.67,3037.16 5436.67,3037.99 5429.5,3037.5C 5429.5,3029.83 5429.5,3022.17 5429.5,3014.5 Z"/></g>
<g><path style="opacity:0.989" fill="#0369e5" d="M 4661.5,2989.5 C 4707.14,2986.06 4739.3,3005.06 4758,3046.5C 4771.6,3097.46 4755.1,3134.96 4708.5,3159C 4669.36,3172.26 4635.53,3164.09 4607,3134.5C 4585.79,3105.94 4581.46,3074.94 4594,3041.5C 4608,3012.98 4630.5,2995.65 4661.5,2989.5 Z"/></g>
<g><path style="opacity:0.949" fill="#09a9f0" d="M 5432.5,2997.5 C 5442.25,2997.41 5451.92,2998.24 5461.5,3000C 5476.75,3004.66 5482.59,3014.83 5479,3030.5C 5475.99,3036.93 5471.16,3041.43 5464.5,3044C 5469.05,3046.88 5472.55,3050.72 5475,3055.5C 5477.63,3063 5479.63,3070.66 5481,3078.5C 5481.69,3081.41 5482.86,3084.07 5484.5,3086.5C 5484.29,3087.09 5483.96,3087.59 5483.5,3088C 5475.81,3088.83 5468.15,3088.66 5460.5,3087.5C 5457.3,3077.36 5453.8,3067.36 5450,3057.5C 5447.7,3055.93 5445.2,3054.76 5442.5,3054C 5437.85,3053.5 5433.18,3053.33 5428.5,3053.5C 5428.5,3065.17 5428.5,3076.83 5428.5,3088.5C 5421.25,3088.81 5414.08,3088.48 5407,3087.5C 5406.5,3058.5 5406.33,3029.5 5406.5,3000.5C 5415.29,2999.32 5423.95,2998.32 5432.5,2997.5 Z M 5429.5,3014.5 C 5429.5,3022.17 5429.5,3029.83 5429.5,3037.5C 5436.67,3037.99 5443.67,3037.16 5450.5,3035C 5458.77,3028.26 5458.43,3021.92 5449.5,3016C 5442.92,3014.62 5436.26,3014.12 5429.5,3014.5 Z"/></g>
<g><path style="opacity:0.993" fill="#09a9f0" d="M 1715.5,3022.5 C 1773.4,3019.71 1828.06,3031.55 1879.5,3058C 1951.73,3098.93 1988.73,3161.1 1990.5,3244.5C 1944.84,3246.56 1899.17,3248.56 1853.5,3250.5C 1844.6,3202.77 1816.6,3172.94 1769.5,3161C 1724.95,3151.81 1681.95,3156.47 1640.5,3175C 1618.41,3186.42 1602.58,3203.59 1593,3226.5C 1582.33,3262.03 1591.5,3291.19 1620.5,3314C 1638.55,3326.57 1658.55,3334.24 1680.5,3337C 1724.17,3341.59 1767.84,3346.26 1811.5,3351C 1951.88,3371.04 2019.04,3451.87 2013,3593.5C 2005.88,3672.96 1967.71,3732.12 1898.5,3771C 1845.12,3798.01 1788.45,3811.18 1728.5,3810.5C 1655.27,3810.36 1588.27,3790.2 1527.5,3750C 1462.7,3702.23 1430.37,3637.73 1430.5,3556.5C 1476.85,3554.09 1523.18,3551.93 1569.5,3550C 1571.22,3590.79 1589.22,3622.12 1623.5,3644C 1668.23,3669.79 1716.23,3678.79 1767.5,3671C 1790.7,3668.27 1812.03,3660.6 1831.5,3648C 1853.32,3630.52 1863.99,3607.68 1863.5,3579.5C 1863.2,3539.07 1844.2,3511.57 1806.5,3497C 1796.75,3493.4 1786.75,3490.73 1776.5,3489C 1732.52,3484.2 1688.52,3479.53 1644.5,3475C 1599.52,3469.12 1558.19,3453.79 1520.5,3429C 1475.2,3395.26 1449.37,3350.1 1443,3293.5C 1433.53,3224.34 1451.2,3163.34 1496,3110.5C 1536.17,3069.42 1584.67,3043.26 1641.5,3032C 1666.07,3026.88 1690.74,3023.72 1715.5,3022.5 Z"/></g>
<g><path style="opacity:0.995" fill="#09a9f0" d="M 2184.5,3048.5 C 2197.15,3049.23 2209.82,3049.56 2222.5,3049.5C 2222.5,3102.17 2222.5,3154.83 2222.5,3207.5C 2284.83,3207.5 2347.17,3207.5 2409.5,3207.5C 2410.2,3248.58 2397.7,3284.91 2372,3316.5C 2348.74,3338.82 2320.91,3351.32 2288.5,3354C 2266.5,3354.76 2244.5,3355.26 2222.5,3355.5C 2222.97,3443.17 2223.47,3530.83 2224,3618.5C 2226.44,3645.59 2240.94,3661.76 2267.5,3667C 2277.48,3668.08 2287.48,3668.92 2297.5,3669.5C 2328.9,3666.99 2360.23,3664.16 2391.5,3661C 2405.1,3700.28 2403.27,3738.78 2386,3776.5C 2379.88,3787.62 2371.38,3796.45 2360.5,3803C 2290.44,3824.46 2222.44,3819.13 2156.5,3787C 2100.9,3756.02 2068.4,3708.85 2059,3645.5C 2057.85,3558.19 2057.35,3470.85 2057.5,3383.5C 2057.67,3299.5 2057.83,3215.5 2058,3131.5C 2060.09,3102.8 2073.25,3080.97 2097.5,3066C 2125.41,3054.13 2154.41,3048.3 2184.5,3048.5 Z"/></g>
<g><path style="opacity:0.995" fill="#0369e5" d="M 4592.5,3188.5 C 4604.66,3196.5 4618,3201.67 4632.5,3204C 4657.09,3206.65 4681.76,3208.31 4706.5,3209C 4729.11,3216.27 4743.61,3231.44 4750,3254.5C 4752.42,3262.68 4754.09,3271.02 4755,3279.5C 4756.15,3355.15 4756.65,3430.82 4756.5,3506.5C 4756.33,3578.5 4756.17,3650.5 4756,3722.5C 4753.4,3760.42 4733.9,3784.59 4697.5,3795C 4662.99,3803.96 4627.99,3806.79 4592.5,3803.5C 4591.17,3598.43 4591.17,3393.43 4592.5,3188.5 Z"/></g>
<g><path style="opacity:0.994" fill="#09a9f0" d="M 2584.5,3199.5 C 2641.88,3198.68 2699.21,3199.85 2756.5,3203C 2795.96,3207.38 2833.63,3218.04 2869.5,3235C 2913.22,3261.06 2943.38,3298.23 2960,3346.5C 2967.36,3370.31 2972.03,3394.65 2974,3419.5C 2975.6,3478.49 2975.93,3537.49 2975,3596.5C 2973.53,3635.05 2964.53,3671.72 2948,3706.5C 2921.01,3753.13 2881.18,3782.63 2828.5,3795C 2812.01,3798.75 2795.34,3801.42 2778.5,3803C 2714.17,3803.67 2649.83,3803.67 2585.5,3803C 2534.82,3800.24 2492.32,3780.4 2458,3743.5C 2431.7,3705.64 2421.03,3663.64 2426,3617.5C 2426.88,3587.09 2432.88,3557.76 2444,3529.5C 2458.05,3497.45 2480.88,3473.95 2512.5,3459C 2544.27,3444.73 2577.6,3437.06 2612.5,3436C 2646.17,3435.11 2679.84,3434.11 2713.5,3433C 2737.54,3432.28 2760.87,3427.95 2783.5,3420C 2795.94,3415.38 2804.44,3406.88 2809,3394.5C 2811.96,3384.02 2810.3,3374.36 2804,3365.5C 2790.72,3352.44 2774.89,3343.94 2756.5,3340C 2701.99,3328.33 2646.99,3325.33 2591.5,3331C 2551.21,3333.66 2511.87,3341.16 2473.5,3353.5C 2464.94,3314.52 2471.44,3277.85 2493,3243.5C 2509.3,3222.91 2530.47,3209.74 2556.5,3204C 2565.91,3202.06 2575.24,3200.56 2584.5,3199.5 Z M 2813.5,3520.5 C 2814.66,3540.66 2814.83,3561 2814,3581.5C 2813.35,3602.08 2809.68,3622.08 2803,3641.5C 2791.22,3654.98 2776.39,3663.14 2758.5,3666C 2726.48,3666.9 2694.48,3666.56 2662.5,3665C 2648.85,3663.87 2635.52,3661.2 2622.5,3657C 2600.5,3647.84 2590,3631.34 2591,3607.5C 2593.7,3596.13 2600.2,3587.63 2610.5,3582C 2633.58,3571.05 2657.91,3565.05 2683.5,3564C 2728.93,3567.3 2769.93,3555.63 2806.5,3529C 2809.42,3526.58 2811.76,3523.75 2813.5,3520.5 Z"/></g>
<g><path style="opacity:0.995" fill="#0369e5" d="M 4332.5,3199.5 C 4402.5,3199.5 4472.5,3199.5 4542.5,3199.5C 4542.93,3213.18 4543.6,3226.84 4544.5,3240.5C 4544.3,3265.64 4539.8,3289.98 4531,3313.5C 4519.17,3334.96 4501.01,3347.46 4476.5,3351C 4448.83,3352.1 4421.17,3353.43 4393.5,3355C 4372.55,3356.31 4353.55,3362.98 4336.5,3375C 4320.31,3390.21 4311.81,3409.04 4311,3431.5C 4310,3440.47 4309.33,3449.47 4309,3458.5C 4309,3579.64 4308.33,3700.64 4307,3821.5C 4297.3,3814.57 4286.8,3809.07 4275.5,3805C 4249.15,3797.08 4222.48,3790.41 4195.5,3785C 4172.69,3776.86 4157.19,3761.36 4149,3738.5C 4146.36,3729.68 4144.7,3720.68 4144,3711.5C 4143.33,3604.83 4143.33,3498.17 4144,3391.5C 4152.97,3274.37 4215.8,3210.37 4332.5,3199.5 Z"/></g>
<g><path style="opacity:0.994" fill="#0369e5" d="M 4961.5,3199.5 C 5013.86,3198.93 5066.19,3199.76 5118.5,3202C 5167.8,3204.57 5214.13,3217.57 5257.5,3241C 5307.44,3276 5337.27,3323.83 5347,3384.5C 5349.46,3398.41 5351.12,3412.41 5352,3426.5C 5352.67,3485.83 5352.67,3545.17 5352,3604.5C 5349.72,3640.62 5340.72,3674.95 5325,3707.5C 5297.9,3753.32 5258.4,3782.48 5206.5,3795C 5190,3798.7 5173.33,3801.37 5156.5,3803C 5089.14,3803.97 5021.81,3803.64 4954.5,3802C 4909.03,3798.18 4870.53,3780.01 4839,3747.5C 4818.79,3722.06 4807.12,3693.06 4804,3660.5C 4801.63,3627.15 4803.97,3594.15 4811,3561.5C 4823.32,3506.85 4855.82,3470.02 4908.5,3451C 4935.11,3442.12 4962.44,3437.12 4990.5,3436C 5028.19,3435.3 5065.86,3433.96 5103.5,3432C 5122.34,3430.8 5140.67,3427.14 5158.5,3421C 5171.15,3416.68 5180.31,3408.52 5186,3396.5C 5189.48,3384.44 5187.48,3373.44 5180,3363.5C 5165.59,3350.57 5148.76,3342.41 5129.5,3339C 5076.59,3328.29 5023.25,3325.62 4969.5,3331C 4928.28,3333.98 4887.95,3341.48 4848.5,3353.5C 4842.74,3315.05 4849.57,3279.05 4869,3245.5C 4883.72,3226.04 4902.89,3212.88 4926.5,3206C 4938.15,3202.95 4949.81,3200.78 4961.5,3199.5 Z M 5191.5,3520.5 C 5192.55,3543.34 5192.38,3566.34 5191,3589.5C 5190.01,3607.76 5186.35,3625.43 5180,3642.5C 5168.05,3655.72 5153.22,3663.56 5135.5,3666C 5103.81,3666.9 5072.15,3666.57 5040.5,3665C 5025.73,3664.04 5011.4,3661.04 4997.5,3656C 4975.94,3646.05 4966.44,3629.21 4969,3605.5C 4971.83,3595.66 4977.67,3588.16 4986.5,3583C 5009.76,3571.35 5034.43,3565.02 5060.5,3564C 5104.29,3567.18 5144.29,3556.51 5180.5,3532C 5184.37,3528.3 5188.04,3524.46 5191.5,3520.5 Z"/></g>
<g><path style="opacity:0.994" fill="#09a9f0" d="M 3316.5,3201.5 C 3356.65,3200.9 3396.65,3203.06 3436.5,3208C 3462.55,3211.6 3488.55,3215.44 3514.5,3219.5C 3516.15,3235.46 3516.65,3251.46 3516,3267.5C 3515.45,3288.82 3509.12,3308.15 3497,3325.5C 3481.85,3341.99 3463.02,3350.82 3440.5,3352C 3404.5,3351.93 3368.5,3351.93 3332.5,3352C 3291.37,3350.59 3256.54,3364.42 3228,3393.5C 3216.45,3410.12 3208.79,3428.45 3205,3448.5C 3197.68,3486.83 3197.68,3525.17 3205,3563.5C 3208.78,3584.04 3217.11,3602.37 3230,3618.5C 3250.65,3636.82 3274.65,3648.49 3302,3653.5C 3319.07,3656.21 3336.24,3658.04 3353.5,3659C 3383.49,3659.89 3413.49,3660.56 3443.5,3661C 3477.13,3666.97 3497.3,3686.8 3504,3720.5C 3507.99,3747.51 3507.65,3774.51 3503,3801.5C 3502.61,3802.43 3501.95,3803.09 3501,3803.5C 3425.69,3814.94 3350.19,3816.44 3274.5,3808C 3223.33,3800.39 3176,3782.72 3132.5,3755C 3099.99,3731.81 3075.49,3701.98 3059,3665.5C 3042.11,3627.95 3032.11,3588.62 3029,3547.5C 3024.51,3494.82 3028.51,3442.82 3041,3391.5C 3066.86,3297.64 3127.02,3238.81 3221.5,3215C 3252.88,3207.45 3284.55,3202.95 3316.5,3201.5 Z"/></g>
<g><path style="opacity:0.954" fill="#09a9f0" d="M 1866.5,3970.5 C 1886.93,3967.91 1903.43,3974.58 1916,3990.5C 1926.52,4011.52 1927.18,4032.86 1918,4054.5C 1910.23,4067.59 1898.73,4075.09 1883.5,4077C 1845.56,4079.73 1825.89,4062.06 1824.5,4024C 1824.01,4005.08 1831.01,3989.74 1845.5,3978C 1852.16,3974.17 1859.16,3971.67 1866.5,3970.5 Z M 1869.5,3989.5 C 1886.58,3988.28 1897.08,3995.95 1901,4012.5C 1902.98,4022.66 1902.31,4032.66 1899,4042.5C 1893.06,4054.89 1883.22,4060.06 1869.5,4058C 1857.05,4054.54 1849.88,4046.37 1848,4033.5C 1846.18,4021.92 1847.85,4010.92 1853,4000.5C 1857.36,3994.92 1862.86,3991.25 1869.5,3989.5 Z"/></g>
<g><path style="opacity:0.95" fill="#09a9f0" d="M 4958.5,3970.5 C 4975.26,3968.47 4989.42,3973.47 5001,3985.5C 5003.97,3989.78 5006.14,3994.45 5007.5,3999.5C 5007.39,4000.44 5007.06,4001.28 5006.5,4002C 5000.33,4003.5 4994.16,4005 4988,4006.5C 4985.38,4001.5 4981.88,3997 4977.5,3993C 4963.07,3986.23 4951.9,3989.73 4944,4003.5C 4938.92,4018.77 4939.59,4033.77 4946,4048.5C 4957.74,4061.28 4969.74,4061.61 4982,4049.5C 4984.32,4045.37 4986.16,4041.03 4987.5,4036.5C 4994.71,4038.51 5001.71,4041.01 5008.5,4044C 4999.84,4070.84 4981.51,4081.51 4953.5,4076C 4933.91,4070.07 4922.41,4056.9 4919,4036.5C 4916.61,4020.72 4918.94,4005.72 4926,3991.5C 4933.89,3979.75 4944.72,3972.75 4958.5,3970.5 Z"/></g>
<g><path style="opacity:0.967" fill="#09a9f0" d="M 1514.5,3972.5 C 1525.19,3972.17 1535.85,3972.5 1546.5,3973.5C 1552.33,3995.49 1558.17,4017.49 1564,4039.5C 1569.67,4017.5 1575.33,3995.5 1581,3973.5C 1591.75,3972.51 1602.59,3972.18 1613.5,3972.5C 1613.5,4006.83 1613.5,4041.17 1613.5,4075.5C 1606.83,4075.5 1600.17,4075.5 1593.5,4075.5C 1593.67,4050.83 1593.5,4026.16 1593,4001.5C 1587,4025.5 1581,4049.5 1575,4073.5C 1571.6,4074.79 1567.93,4075.46 1564,4075.5C 1560.25,4075.48 1556.58,4075.15 1553,4074.5C 1547,4050.5 1541,4026.5 1535,4002.5C 1534.5,4026.83 1534.33,4051.16 1534.5,4075.5C 1527.83,4075.5 1521.17,4075.5 1514.5,4075.5C 1514.5,4041.17 1514.5,4006.83 1514.5,3972.5 Z"/></g>
<g><path style="opacity:0.951" fill="#09a9f0" d="M 2136.5,3972.5 C 2157.53,3972.1 2178.53,3972.6 2199.5,3974C 2215.72,3979.26 2222.56,3990.42 2220,4007.5C 2217.48,4020.53 2209.65,4028.37 2196.5,4031C 2200.63,4034.13 2204.47,4037.63 2208,4041.5C 2215.03,4052.37 2221.86,4063.37 2228.5,4074.5C 2219.83,4075.83 2211.17,4075.83 2202.5,4074.5C 2194.45,4061.56 2185.78,4049.06 2176.5,4037C 2170.96,4033.86 2164.96,4032.7 2158.5,4033.5C 2158.5,4047.5 2158.5,4061.5 2158.5,4075.5C 2151.17,4075.5 2143.83,4075.5 2136.5,4075.5C 2136.5,4041.17 2136.5,4006.83 2136.5,3972.5 Z M 2158.5,3991.5 C 2168.84,3991.33 2179.17,3991.5 2189.5,3992C 2195.1,3993.77 2197.77,3997.61 2197.5,4003.5C 2197.95,4008.43 2195.95,4011.93 2191.5,4014C 2180.56,4015.41 2169.56,4015.91 2158.5,4015.5C 2158.5,4007.5 2158.5,3999.5 2158.5,3991.5 Z"/></g>
<g><path style="opacity:0.955" fill="#09a9f0" d="M 2434.5,3972.5 C 2459.83,3972.5 2485.17,3972.5 2510.5,3972.5C 2510.5,3978.83 2510.5,3985.17 2510.5,3991.5C 2492.5,3991.5 2474.5,3991.5 2456.5,3991.5C 2456.5,3998.5 2456.5,4005.5 2456.5,4012.5C 2473.5,4012.5 2490.5,4012.5 2507.5,4012.5C 2507.5,4018.5 2507.5,4024.5 2507.5,4030.5C 2490.5,4030.5 2473.5,4030.5 2456.5,4030.5C 2456.5,4039.17 2456.5,4047.83 2456.5,4056.5C 2475.17,4056.5 2493.83,4056.5 2512.5,4056.5C 2512.5,4062.83 2512.5,4069.17 2512.5,4075.5C 2486.5,4075.5 2460.5,4075.5 2434.5,4075.5C 2434.5,4041.17 2434.5,4006.83 2434.5,3972.5 Z"/></g>
<g><path style="opacity:0.955" fill="#09a9f0" d="M 2951.5,3972.5 C 2959.17,3972.5 2966.83,3972.5 2974.5,3972.5C 2978.7,3994.65 2983.54,4016.65 2989,4038.5C 2994.67,4016.83 3000.33,3995.17 3006,3973.5C 3014.75,3972.52 3023.58,3972.18 3032.5,3972.5C 3037.84,3994.86 3043.34,4017.19 3049,4039.5C 3054.31,4017.59 3059.31,3995.59 3064,3973.5C 3071.44,3972.19 3078.94,3972.19 3086.5,3973.5C 3078.34,4006.82 3070.17,4040.16 3062,4073.5C 3058.26,4074.79 3054.26,4075.46 3050,4075.5C 3045.92,4075.48 3041.92,4075.15 3038,4074.5C 3031.67,4050.5 3025.33,4026.5 3019,4002.5C 3012.5,4026.51 3006,4050.51 2999.5,4074.5C 2991.5,4075.83 2983.5,4075.83 2975.5,4074.5C 2967.37,4040.52 2959.37,4006.52 2951.5,3972.5 Z"/></g>
<g><path style="opacity:0.99" fill="#09a9f0" d="M 3292.5,3972.5 C 3299.5,3972.5 3306.5,3972.5 3313.5,3972.5C 3313.5,4006.83 3313.5,4041.17 3313.5,4075.5C 3306.5,4075.5 3299.5,4075.5 3292.5,4075.5C 3292.5,4041.17 3292.5,4006.83 3292.5,3972.5 Z"/></g>
<g><path style="opacity:0.971" fill="#09a9f0" d="M 3522.5,3972.5 C 3549.5,3972.5 3576.5,3972.5 3603.5,3972.5C 3603.5,3978.83 3603.5,3985.17 3603.5,3991.5C 3593.5,3991.5 3583.5,3991.5 3573.5,3991.5C 3573.5,4019.5 3573.5,4047.5 3573.5,4075.5C 3566.5,4075.5 3559.5,4075.5 3552.5,4075.5C 3552.5,4047.5 3552.5,4019.5 3552.5,3991.5C 3542.5,3991.5 3532.5,3991.5 3522.5,3991.5C 3522.5,3985.17 3522.5,3978.83 3522.5,3972.5 Z"/></g>
<g><path style="opacity:0.964" fill="#09a9f0" d="M 3813.5,3972.5 C 3820.5,3972.5 3827.5,3972.5 3834.5,3972.5C 3834.5,3985.83 3834.5,3999.17 3834.5,4012.5C 3847.5,4012.5 3860.5,4012.5 3873.5,4012.5C 3873.5,3999.17 3873.5,3985.83 3873.5,3972.5C 3880.83,3972.5 3888.17,3972.5 3895.5,3972.5C 3895.5,4006.83 3895.5,4041.17 3895.5,4075.5C 3888.17,4075.5 3880.83,4075.5 3873.5,4075.5C 3873.5,4060.83 3873.5,4046.17 3873.5,4031.5C 3860.5,4031.5 3847.5,4031.5 3834.5,4031.5C 3834.5,4046.17 3834.5,4060.83 3834.5,4075.5C 3827.5,4075.5 3820.5,4075.5 3813.5,4075.5C 3813.5,4041.17 3813.5,4006.83 3813.5,3972.5 Z"/></g>
<g><path style="opacity:0.949" fill="#09a9f0" d="M 4340.5,3972.5 C 4367.83,3972.5 4395.17,3972.5 4422.5,3972.5C 4422.5,3978.83 4422.5,3985.17 4422.5,3991.5C 4412.5,3991.5 4402.5,3991.5 4392.5,3991.5C 4392.5,4019.5 4392.5,4047.5 4392.5,4075.5C 4385.17,4075.5 4377.83,4075.5 4370.5,4075.5C 4370.5,4047.5 4370.5,4019.5 4370.5,3991.5C 4360.5,3991.5 4350.5,3991.5 4340.5,3991.5C 4340.5,3985.17 4340.5,3978.83 4340.5,3972.5 Z"/></g>
<g><path style="opacity:0.959" fill="#09a9f0" d="M 4631.5,3972.5 C 4656.83,3972.5 4682.17,3972.5 4707.5,3972.5C 4707.5,3978.83 4707.5,3985.17 4707.5,3991.5C 4689.5,3991.5 4671.5,3991.5 4653.5,3991.5C 4653.5,3998.5 4653.5,4005.5 4653.5,4012.5C 4670.17,4012.5 4686.83,4012.5 4703.5,4012.5C 4703.5,4018.5 4703.5,4024.5 4703.5,4030.5C 4686.83,4030.5 4670.17,4030.5 4653.5,4030.5C 4653.5,4039.17 4653.5,4047.83 4653.5,4056.5C 4672.17,4056.5 4690.83,4056.5 4709.5,4056.5C 4709.5,4062.83 4709.5,4069.17 4709.5,4075.5C 4683.5,4075.5 4657.5,4075.5 4631.5,4075.5C 4631.5,4041.17 4631.5,4006.83 4631.5,3972.5 Z"/></g>
<g><path style="opacity:0.954" fill="#09a9f0" d="M 5219.5,3972.5 C 5226.83,3972.5 5234.17,3972.5 5241.5,3972.5C 5241.5,3985.83 5241.5,3999.17 5241.5,4012.5C 5254.5,4012.5 5267.5,4012.5 5280.5,4012.5C 5280.5,3999.17 5280.5,3985.83 5280.5,3972.5C 5287.83,3972.5 5295.17,3972.5 5302.5,3972.5C 5302.5,4006.83 5302.5,4041.17 5302.5,4075.5C 5295.17,4075.5 5287.83,4075.5 5280.5,4075.5C 5280.5,4060.83 5280.5,4046.17 5280.5,4031.5C 5267.5,4031.5 5254.5,4031.5 5241.5,4031.5C 5241.5,4046.17 5241.5,4060.83 5241.5,4075.5C 5234.17,4075.5 5226.83,4075.5 5219.5,4075.5C 5219.5,4041.17 5219.5,4006.83 5219.5,3972.5 Z"/></g>
</svg>
